<mxfile host="Electron" agent="Mozilla/5.0 (Windows NT 10.0; Win64; x64) AppleWebKit/537.36 (KHTML, like Gecko) draw.io/24.7.17 Chrome/128.0.6613.36 Electron/32.0.1 Safari/537.36" version="24.7.17" pages="4">
  <diagram name="MPLS VPN OptionC-2" id="WD-x0e9aboqowJD2-E_R">
    <mxGraphModel dx="2284" dy="836" grid="1" gridSize="10" guides="1" tooltips="1" connect="1" arrows="1" fold="1" page="1" pageScale="1" pageWidth="850" pageHeight="1100" math="0" shadow="0">
      <root>
        <mxCell id="TxQr1nFOBBhdp8WZAN2O-0" />
        <mxCell id="TxQr1nFOBBhdp8WZAN2O-1" parent="TxQr1nFOBBhdp8WZAN2O-0" />
        <mxCell id="TxQr1nFOBBhdp8WZAN2O-2" value="" style="ellipse;shape=cloud;whiteSpace=wrap;html=1;fillColor=#f8cecc;gradientColor=#ea6b66;strokeColor=#b85450;" vertex="1" parent="TxQr1nFOBBhdp8WZAN2O-1">
          <mxGeometry x="787.5" y="685" width="295" height="200" as="geometry" />
        </mxCell>
        <mxCell id="TxQr1nFOBBhdp8WZAN2O-3" value="" style="ellipse;shape=cloud;whiteSpace=wrap;html=1;fillColor=#d5e8d4;gradientColor=#97d077;strokeColor=#82b366;" vertex="1" parent="TxQr1nFOBBhdp8WZAN2O-1">
          <mxGeometry x="-10" y="685" width="295" height="200" as="geometry" />
        </mxCell>
        <mxCell id="TxQr1nFOBBhdp8WZAN2O-4" value="" style="ellipse;shape=cloud;whiteSpace=wrap;html=1;fillColor=#dae8fc;gradientColor=#7ea6e0;strokeColor=#6c8ebf;" vertex="1" parent="TxQr1nFOBBhdp8WZAN2O-1">
          <mxGeometry x="530" y="205" width="660" height="440" as="geometry" />
        </mxCell>
        <mxCell id="TxQr1nFOBBhdp8WZAN2O-5" value="" style="ellipse;shape=cloud;whiteSpace=wrap;html=1;fillColor=#fff2cc;gradientColor=#ffd966;strokeColor=#d6b656;" vertex="1" parent="TxQr1nFOBBhdp8WZAN2O-1">
          <mxGeometry x="-140" y="205" width="660" height="440" as="geometry" />
        </mxCell>
        <mxCell id="TxQr1nFOBBhdp8WZAN2O-6" value="" style="sketch=0;points=[[0.5,0,0],[1,0.5,0],[0.5,1,0],[0,0.5,0],[0.145,0.145,0],[0.8555,0.145,0],[0.855,0.8555,0],[0.145,0.855,0]];verticalLabelPosition=bottom;html=1;verticalAlign=top;aspect=fixed;align=center;pointerEvents=1;shape=mxgraph.cisco19.rect;prIcon=router;fillColor=#FAFAFA;strokeColor=#005073;" vertex="1" parent="TxQr1nFOBBhdp8WZAN2O-1">
          <mxGeometry x="1050" y="300" width="50" height="50" as="geometry" />
        </mxCell>
        <mxCell id="TxQr1nFOBBhdp8WZAN2O-7" value="" style="sketch=0;points=[[0.5,0,0],[1,0.5,0],[0.5,1,0],[0,0.5,0],[0.145,0.145,0],[0.8555,0.145,0],[0.855,0.8555,0],[0.145,0.855,0]];verticalLabelPosition=bottom;html=1;verticalAlign=top;aspect=fixed;align=center;pointerEvents=1;shape=mxgraph.cisco19.rect;prIcon=router;fillColor=#FAFAFA;strokeColor=#005073;" vertex="1" parent="TxQr1nFOBBhdp8WZAN2O-1">
          <mxGeometry x="400" y="510" width="50" height="50" as="geometry" />
        </mxCell>
        <mxCell id="TxQr1nFOBBhdp8WZAN2O-8" value="" style="sketch=0;points=[[0.5,0,0],[1,0.5,0],[0.5,1,0],[0,0.5,0],[0.145,0.145,0],[0.8555,0.145,0],[0.855,0.8555,0],[0.145,0.855,0]];verticalLabelPosition=bottom;html=1;verticalAlign=top;aspect=fixed;align=center;pointerEvents=1;shape=mxgraph.cisco19.rect;prIcon=router;fillColor=#FAFAFA;strokeColor=#005073;" vertex="1" parent="TxQr1nFOBBhdp8WZAN2O-1">
          <mxGeometry x="260" y="300" width="50" height="50" as="geometry" />
        </mxCell>
        <mxCell id="TxQr1nFOBBhdp8WZAN2O-9" value="" style="sketch=0;points=[[0.5,0,0],[1,0.5,0],[0.5,1,0],[0,0.5,0],[0.145,0.145,0],[0.8555,0.145,0],[0.855,0.8555,0],[0.145,0.855,0]];verticalLabelPosition=bottom;html=1;verticalAlign=top;aspect=fixed;align=center;pointerEvents=1;shape=mxgraph.cisco19.rect;prIcon=router;fillColor=#FAFAFA;strokeColor=#005073;" vertex="1" parent="TxQr1nFOBBhdp8WZAN2O-1">
          <mxGeometry x="120" y="510" width="50" height="50" as="geometry" />
        </mxCell>
        <mxCell id="TxQr1nFOBBhdp8WZAN2O-10" value="" style="sketch=0;points=[[0.5,0,0],[1,0.5,0],[0.5,1,0],[0,0.5,0],[0.145,0.145,0],[0.8555,0.145,0],[0.855,0.8555,0],[0.145,0.855,0]];verticalLabelPosition=bottom;html=1;verticalAlign=top;aspect=fixed;align=center;pointerEvents=1;shape=mxgraph.cisco19.rect;prIcon=router;fillColor=#FAFAFA;strokeColor=#005073;" vertex="1" parent="TxQr1nFOBBhdp8WZAN2O-1">
          <mxGeometry x="-10" y="300" width="50" height="50" as="geometry" />
        </mxCell>
        <mxCell id="TxQr1nFOBBhdp8WZAN2O-11" value="" style="endArrow=none;html=1;rounded=0;entryX=0.5;entryY=1;entryDx=0;entryDy=0;entryPerimeter=0;exitX=0.5;exitY=0;exitDx=0;exitDy=0;exitPerimeter=0;" edge="1" parent="TxQr1nFOBBhdp8WZAN2O-1" source="TxQr1nFOBBhdp8WZAN2O-9" target="TxQr1nFOBBhdp8WZAN2O-8">
          <mxGeometry width="50" height="50" relative="1" as="geometry">
            <mxPoint x="610" y="450" as="sourcePoint" />
            <mxPoint x="660" y="400" as="targetPoint" />
          </mxGeometry>
        </mxCell>
        <mxCell id="TxQr1nFOBBhdp8WZAN2O-12" value="" style="endArrow=none;html=1;rounded=0;entryX=0.5;entryY=1;entryDx=0;entryDy=0;entryPerimeter=0;exitX=0.5;exitY=0;exitDx=0;exitDy=0;exitPerimeter=0;" edge="1" parent="TxQr1nFOBBhdp8WZAN2O-1" source="TxQr1nFOBBhdp8WZAN2O-7" target="TxQr1nFOBBhdp8WZAN2O-8">
          <mxGeometry width="50" height="50" relative="1" as="geometry">
            <mxPoint x="610" y="450" as="sourcePoint" />
            <mxPoint x="660" y="400" as="targetPoint" />
          </mxGeometry>
        </mxCell>
        <mxCell id="TxQr1nFOBBhdp8WZAN2O-13" value="" style="endArrow=none;html=1;rounded=0;entryX=0;entryY=0.5;entryDx=0;entryDy=0;entryPerimeter=0;exitX=1;exitY=0.5;exitDx=0;exitDy=0;exitPerimeter=0;" edge="1" parent="TxQr1nFOBBhdp8WZAN2O-1" source="YEgb1MkVtW5zTHGssSuD-0" target="TxQr1nFOBBhdp8WZAN2O-16">
          <mxGeometry width="50" height="50" relative="1" as="geometry">
            <mxPoint x="435" y="520" as="sourcePoint" />
            <mxPoint x="630" y="535" as="targetPoint" />
          </mxGeometry>
        </mxCell>
        <mxCell id="TxQr1nFOBBhdp8WZAN2O-14" value="" style="sketch=0;points=[[0.5,0,0],[1,0.5,0],[0.5,1,0],[0,0.5,0],[0.145,0.145,0],[0.8555,0.145,0],[0.855,0.8555,0],[0.145,0.855,0]];verticalLabelPosition=bottom;html=1;verticalAlign=top;aspect=fixed;align=center;pointerEvents=1;shape=mxgraph.cisco19.rect;prIcon=router;fillColor=#FAFAFA;strokeColor=#005073;" vertex="1" parent="TxQr1nFOBBhdp8WZAN2O-1">
          <mxGeometry x="910" y="510" width="50" height="50" as="geometry" />
        </mxCell>
        <mxCell id="TxQr1nFOBBhdp8WZAN2O-15" value="" style="sketch=0;points=[[0.5,0,0],[1,0.5,0],[0.5,1,0],[0,0.5,0],[0.145,0.145,0],[0.8555,0.145,0],[0.855,0.8555,0],[0.145,0.855,0]];verticalLabelPosition=bottom;html=1;verticalAlign=top;aspect=fixed;align=center;pointerEvents=1;shape=mxgraph.cisco19.rect;prIcon=router;fillColor=#FAFAFA;strokeColor=#005073;" vertex="1" parent="TxQr1nFOBBhdp8WZAN2O-1">
          <mxGeometry x="770" y="300" width="50" height="50" as="geometry" />
        </mxCell>
        <mxCell id="TxQr1nFOBBhdp8WZAN2O-16" value="" style="sketch=0;points=[[0.5,0,0],[1,0.5,0],[0.5,1,0],[0,0.5,0],[0.145,0.145,0],[0.8555,0.145,0],[0.855,0.8555,0],[0.145,0.855,0]];verticalLabelPosition=bottom;html=1;verticalAlign=top;aspect=fixed;align=center;pointerEvents=1;shape=mxgraph.cisco19.rect;prIcon=router;fillColor=#FAFAFA;strokeColor=#005073;" vertex="1" parent="TxQr1nFOBBhdp8WZAN2O-1">
          <mxGeometry x="635" y="510" width="50" height="50" as="geometry" />
        </mxCell>
        <mxCell id="TxQr1nFOBBhdp8WZAN2O-17" value="" style="endArrow=none;html=1;rounded=0;entryX=0.5;entryY=1;entryDx=0;entryDy=0;entryPerimeter=0;exitX=0.5;exitY=0;exitDx=0;exitDy=0;exitPerimeter=0;" edge="1" parent="TxQr1nFOBBhdp8WZAN2O-1" source="TxQr1nFOBBhdp8WZAN2O-16" target="TxQr1nFOBBhdp8WZAN2O-15">
          <mxGeometry width="50" height="50" relative="1" as="geometry">
            <mxPoint x="1120" y="450" as="sourcePoint" />
            <mxPoint x="1170" y="400" as="targetPoint" />
          </mxGeometry>
        </mxCell>
        <mxCell id="TxQr1nFOBBhdp8WZAN2O-18" value="" style="endArrow=none;html=1;rounded=0;entryX=0.5;entryY=1;entryDx=0;entryDy=0;entryPerimeter=0;exitX=0.5;exitY=0;exitDx=0;exitDy=0;exitPerimeter=0;" edge="1" parent="TxQr1nFOBBhdp8WZAN2O-1" source="TxQr1nFOBBhdp8WZAN2O-14" target="TxQr1nFOBBhdp8WZAN2O-15">
          <mxGeometry width="50" height="50" relative="1" as="geometry">
            <mxPoint x="1120" y="450" as="sourcePoint" />
            <mxPoint x="1170" y="400" as="targetPoint" />
          </mxGeometry>
        </mxCell>
        <mxCell id="TxQr1nFOBBhdp8WZAN2O-19" value="" style="endArrow=none;html=1;rounded=0;entryX=1;entryY=0.5;entryDx=0;entryDy=0;entryPerimeter=0;exitX=0;exitY=0.5;exitDx=0;exitDy=0;exitPerimeter=0;" edge="1" parent="TxQr1nFOBBhdp8WZAN2O-1" source="TxQr1nFOBBhdp8WZAN2O-8" target="TxQr1nFOBBhdp8WZAN2O-10">
          <mxGeometry width="50" height="50" relative="1" as="geometry">
            <mxPoint x="610" y="450" as="sourcePoint" />
            <mxPoint x="660" y="400" as="targetPoint" />
          </mxGeometry>
        </mxCell>
        <mxCell id="TxQr1nFOBBhdp8WZAN2O-20" value="" style="endArrow=none;html=1;rounded=0;entryX=1;entryY=0.5;entryDx=0;entryDy=0;entryPerimeter=0;exitX=0;exitY=0.5;exitDx=0;exitDy=0;exitPerimeter=0;" edge="1" parent="TxQr1nFOBBhdp8WZAN2O-1" source="TxQr1nFOBBhdp8WZAN2O-6" target="TxQr1nFOBBhdp8WZAN2O-15">
          <mxGeometry width="50" height="50" relative="1" as="geometry">
            <mxPoint x="270" y="335" as="sourcePoint" />
            <mxPoint x="50" y="335" as="targetPoint" />
          </mxGeometry>
        </mxCell>
        <mxCell id="TxQr1nFOBBhdp8WZAN2O-21" value="" style="sketch=0;points=[[0.5,0,0],[1,0.5,0],[0.5,1,0],[0,0.5,0],[0.145,0.145,0],[0.8555,0.145,0],[0.855,0.8555,0],[0.145,0.855,0]];verticalLabelPosition=bottom;html=1;verticalAlign=top;aspect=fixed;align=center;pointerEvents=1;shape=mxgraph.cisco19.rect;prIcon=router;fillColor=#FAFAFA;strokeColor=#005073;" vertex="1" parent="TxQr1nFOBBhdp8WZAN2O-1">
          <mxGeometry x="910" y="760" width="50" height="50" as="geometry" />
        </mxCell>
        <mxCell id="TxQr1nFOBBhdp8WZAN2O-22" value="" style="sketch=0;points=[[0.5,0,0],[1,0.5,0],[0.5,1,0],[0,0.5,0],[0.145,0.145,0],[0.8555,0.145,0],[0.855,0.8555,0],[0.145,0.855,0]];verticalLabelPosition=bottom;html=1;verticalAlign=top;aspect=fixed;align=center;pointerEvents=1;shape=mxgraph.cisco19.rect;prIcon=router;fillColor=#FAFAFA;strokeColor=#005073;" vertex="1" parent="TxQr1nFOBBhdp8WZAN2O-1">
          <mxGeometry x="120" y="760" width="50" height="50" as="geometry" />
        </mxCell>
        <mxCell id="TxQr1nFOBBhdp8WZAN2O-23" value="" style="endArrow=none;html=1;rounded=0;entryX=0.5;entryY=1;entryDx=0;entryDy=0;entryPerimeter=0;exitX=0.5;exitY=0;exitDx=0;exitDy=0;exitPerimeter=0;" edge="1" parent="TxQr1nFOBBhdp8WZAN2O-1" source="YEgb1MkVtW5zTHGssSuD-2" target="TxQr1nFOBBhdp8WZAN2O-9">
          <mxGeometry width="50" height="50" relative="1" as="geometry">
            <mxPoint x="610" y="650" as="sourcePoint" />
            <mxPoint x="660" y="600" as="targetPoint" />
          </mxGeometry>
        </mxCell>
        <mxCell id="TxQr1nFOBBhdp8WZAN2O-24" value="" style="endArrow=none;html=1;rounded=0;entryX=0.5;entryY=1;entryDx=0;entryDy=0;entryPerimeter=0;exitX=0.5;exitY=0;exitDx=0;exitDy=0;exitPerimeter=0;" edge="1" parent="TxQr1nFOBBhdp8WZAN2O-1" source="YEgb1MkVtW5zTHGssSuD-5" target="TxQr1nFOBBhdp8WZAN2O-14">
          <mxGeometry width="50" height="50" relative="1" as="geometry">
            <mxPoint x="155" y="770" as="sourcePoint" />
            <mxPoint x="155" y="570" as="targetPoint" />
          </mxGeometry>
        </mxCell>
        <mxCell id="TxQr1nFOBBhdp8WZAN2O-25" value="&lt;font style=&quot;font-size: 16px;&quot;&gt;RR1&lt;/font&gt;" style="text;html=1;align=center;verticalAlign=middle;resizable=0;points=[];autosize=1;strokeColor=none;fillColor=none;" vertex="1" parent="TxQr1nFOBBhdp8WZAN2O-1">
          <mxGeometry x="-15" y="350" width="60" height="30" as="geometry" />
        </mxCell>
        <mxCell id="TxQr1nFOBBhdp8WZAN2O-26" value="&lt;font style=&quot;font-size: 16px;&quot;&gt;RR2&lt;/font&gt;" style="text;html=1;align=center;verticalAlign=middle;resizable=0;points=[];autosize=1;strokeColor=none;fillColor=none;" vertex="1" parent="TxQr1nFOBBhdp8WZAN2O-1">
          <mxGeometry x="1045" y="350" width="60" height="30" as="geometry" />
        </mxCell>
        <mxCell id="TxQr1nFOBBhdp8WZAN2O-27" value="&lt;font style=&quot;font-size: 16px;&quot;&gt;R3&lt;/font&gt;" style="text;html=1;align=center;verticalAlign=middle;resizable=0;points=[];autosize=1;strokeColor=none;fillColor=none;" vertex="1" parent="TxQr1nFOBBhdp8WZAN2O-1">
          <mxGeometry x="320" y="315.28" width="40" height="30" as="geometry" />
        </mxCell>
        <mxCell id="TxQr1nFOBBhdp8WZAN2O-28" value="&lt;font style=&quot;font-size: 16px;&quot;&gt;R2&lt;/font&gt;" style="text;html=1;align=center;verticalAlign=middle;resizable=0;points=[];autosize=1;strokeColor=none;fillColor=none;" vertex="1" parent="TxQr1nFOBBhdp8WZAN2O-1">
          <mxGeometry x="75" y="520" width="40" height="30" as="geometry" />
        </mxCell>
        <mxCell id="TxQr1nFOBBhdp8WZAN2O-29" value="&lt;font style=&quot;font-size: 16px;&quot;&gt;R1&lt;/font&gt;" style="text;html=1;align=center;verticalAlign=middle;resizable=0;points=[];autosize=1;strokeColor=none;fillColor=none;" vertex="1" parent="TxQr1nFOBBhdp8WZAN2O-1">
          <mxGeometry x="75" y="770" width="40" height="30" as="geometry" />
        </mxCell>
        <mxCell id="TxQr1nFOBBhdp8WZAN2O-30" value="&lt;font style=&quot;font-size: 16px;&quot;&gt;R4&lt;/font&gt;" style="text;html=1;align=center;verticalAlign=middle;resizable=0;points=[];autosize=1;strokeColor=none;fillColor=none;" vertex="1" parent="TxQr1nFOBBhdp8WZAN2O-1">
          <mxGeometry x="405" y="570" width="40" height="30" as="geometry" />
        </mxCell>
        <mxCell id="TxQr1nFOBBhdp8WZAN2O-31" value="&lt;font style=&quot;font-size: 16px;&quot;&gt;R5&lt;/font&gt;" style="text;html=1;align=center;verticalAlign=middle;resizable=0;points=[];autosize=1;strokeColor=none;fillColor=none;" vertex="1" parent="TxQr1nFOBBhdp8WZAN2O-1">
          <mxGeometry x="635" y="570" width="40" height="30" as="geometry" />
        </mxCell>
        <mxCell id="TxQr1nFOBBhdp8WZAN2O-32" value="&lt;font style=&quot;font-size: 16px;&quot;&gt;R6&lt;/font&gt;" style="text;html=1;align=center;verticalAlign=middle;resizable=0;points=[];autosize=1;strokeColor=none;fillColor=none;" vertex="1" parent="TxQr1nFOBBhdp8WZAN2O-1">
          <mxGeometry x="725" y="310" width="40" height="30" as="geometry" />
        </mxCell>
        <mxCell id="TxQr1nFOBBhdp8WZAN2O-33" value="&lt;font style=&quot;font-size: 16px;&quot;&gt;R7&lt;/font&gt;" style="text;html=1;align=center;verticalAlign=middle;resizable=0;points=[];autosize=1;strokeColor=none;fillColor=none;" vertex="1" parent="TxQr1nFOBBhdp8WZAN2O-1">
          <mxGeometry x="975" y="520" width="40" height="30" as="geometry" />
        </mxCell>
        <mxCell id="TxQr1nFOBBhdp8WZAN2O-34" value="&lt;font style=&quot;font-size: 16px;&quot;&gt;R8&lt;/font&gt;" style="text;html=1;align=center;verticalAlign=middle;resizable=0;points=[];autosize=1;strokeColor=none;fillColor=none;" vertex="1" parent="TxQr1nFOBBhdp8WZAN2O-1">
          <mxGeometry x="975" y="770" width="40" height="30" as="geometry" />
        </mxCell>
        <mxCell id="TxQr1nFOBBhdp8WZAN2O-62" value="&lt;font style=&quot;font-size: 20px;&quot;&gt;AS 65001&lt;/font&gt;" style="text;html=1;align=center;verticalAlign=middle;resizable=0;points=[];autosize=1;strokeColor=none;fillColor=none;" vertex="1" parent="TxQr1nFOBBhdp8WZAN2O-1">
          <mxGeometry x="-40" y="460" width="110" height="40" as="geometry" />
        </mxCell>
        <mxCell id="TxQr1nFOBBhdp8WZAN2O-63" value="&lt;font style=&quot;font-size: 20px;&quot;&gt;AS 65002&lt;/font&gt;" style="text;html=1;align=center;verticalAlign=middle;resizable=0;points=[];autosize=1;strokeColor=none;fillColor=none;" vertex="1" parent="TxQr1nFOBBhdp8WZAN2O-1">
          <mxGeometry x="1035" y="470" width="110" height="40" as="geometry" />
        </mxCell>
        <mxCell id="TxQr1nFOBBhdp8WZAN2O-64" value="&lt;font style=&quot;font-size: 20px;&quot;&gt;AS 100&lt;/font&gt;" style="text;html=1;align=center;verticalAlign=middle;resizable=0;points=[];autosize=1;strokeColor=none;fillColor=none;" vertex="1" parent="TxQr1nFOBBhdp8WZAN2O-1">
          <mxGeometry x="90" y="820" width="90" height="40" as="geometry" />
        </mxCell>
        <mxCell id="TxQr1nFOBBhdp8WZAN2O-65" value="&lt;font style=&quot;font-size: 20px;&quot;&gt;AS 200&lt;/font&gt;" style="text;html=1;align=center;verticalAlign=middle;resizable=0;points=[];autosize=1;strokeColor=none;fillColor=none;" vertex="1" parent="TxQr1nFOBBhdp8WZAN2O-1">
          <mxGeometry x="890" y="820" width="90" height="40" as="geometry" />
        </mxCell>
        <mxCell id="YEgb1MkVtW5zTHGssSuD-1" value="" style="endArrow=none;html=1;rounded=0;entryX=0;entryY=0.5;entryDx=0;entryDy=0;entryPerimeter=0;exitX=1;exitY=0.5;exitDx=0;exitDy=0;exitPerimeter=0;" edge="1" parent="TxQr1nFOBBhdp8WZAN2O-1" source="TxQr1nFOBBhdp8WZAN2O-7" target="YEgb1MkVtW5zTHGssSuD-0">
          <mxGeometry width="50" height="50" relative="1" as="geometry">
            <mxPoint x="450" y="535" as="sourcePoint" />
            <mxPoint x="630" y="535" as="targetPoint" />
          </mxGeometry>
        </mxCell>
        <mxCell id="YEgb1MkVtW5zTHGssSuD-0" value="&lt;font color=&quot;#000000&quot;&gt;EBGP(BGP IPv4)&lt;/font&gt;" style="html=1;outlineConnect=0;fillColor=#d5e8d4;strokeColor=#82b366;gradientDirection=north;strokeWidth=2;shape=mxgraph.networks.bus;gradientColor=#97d077;gradientDirection=north;perimeter=backbonePerimeter;backboneSize=20;" vertex="1" parent="TxQr1nFOBBhdp8WZAN2O-1">
          <mxGeometry x="450" y="525" width="190" height="20" as="geometry" />
        </mxCell>
        <mxCell id="YEgb1MkVtW5zTHGssSuD-3" value="" style="endArrow=none;html=1;rounded=0;entryX=0.5;entryY=1;entryDx=0;entryDy=0;entryPerimeter=0;exitX=0.5;exitY=0;exitDx=0;exitDy=0;exitPerimeter=0;" edge="1" parent="TxQr1nFOBBhdp8WZAN2O-1" source="TxQr1nFOBBhdp8WZAN2O-22" target="YEgb1MkVtW5zTHGssSuD-2">
          <mxGeometry width="50" height="50" relative="1" as="geometry">
            <mxPoint x="145" y="760" as="sourcePoint" />
            <mxPoint x="145" y="560" as="targetPoint" />
          </mxGeometry>
        </mxCell>
        <mxCell id="YEgb1MkVtW5zTHGssSuD-2" value="&lt;font color=&quot;#000000&quot;&gt;EBGP(BGP IPv4)&lt;/font&gt;" style="html=1;outlineConnect=0;fillColor=#d5e8d4;strokeColor=#82b366;gradientDirection=north;strokeWidth=2;shape=mxgraph.networks.bus;gradientColor=#97d077;gradientDirection=north;perimeter=backbonePerimeter;backboneSize=20;rotation=-90;" vertex="1" parent="TxQr1nFOBBhdp8WZAN2O-1">
          <mxGeometry x="44.91" y="650" width="200" height="20" as="geometry" />
        </mxCell>
        <mxCell id="YEgb1MkVtW5zTHGssSuD-6" value="" style="endArrow=none;html=1;rounded=0;entryX=0.5;entryY=1;entryDx=0;entryDy=0;entryPerimeter=0;exitX=0.5;exitY=0;exitDx=0;exitDy=0;exitPerimeter=0;" edge="1" parent="TxQr1nFOBBhdp8WZAN2O-1" source="TxQr1nFOBBhdp8WZAN2O-21" target="YEgb1MkVtW5zTHGssSuD-5">
          <mxGeometry width="50" height="50" relative="1" as="geometry">
            <mxPoint x="935" y="760" as="sourcePoint" />
            <mxPoint x="935" y="560" as="targetPoint" />
          </mxGeometry>
        </mxCell>
        <mxCell id="YEgb1MkVtW5zTHGssSuD-5" value="&lt;font color=&quot;#000000&quot;&gt;EBGP(BGP IPv4)&lt;/font&gt;" style="html=1;outlineConnect=0;fillColor=#d5e8d4;strokeColor=#82b366;gradientDirection=north;strokeWidth=2;shape=mxgraph.networks.bus;gradientColor=#97d077;gradientDirection=north;perimeter=backbonePerimeter;backboneSize=20;rotation=-90;" vertex="1" parent="TxQr1nFOBBhdp8WZAN2O-1">
          <mxGeometry x="835" y="650" width="200" height="20" as="geometry" />
        </mxCell>
        <mxCell id="YEgb1MkVtW5zTHGssSuD-15" value="&lt;font color=&quot;#000000&quot;&gt;BGP VPNv4&lt;/font&gt;" style="html=1;outlineConnect=0;fillColor=#f8cecc;strokeColor=#b85450;gradientDirection=north;strokeWidth=2;shape=mxgraph.networks.bus;gradientDirection=north;perimeter=backbonePerimeter;backboneSize=20;gradientColor=#ea6b66;" vertex="1" parent="TxQr1nFOBBhdp8WZAN2O-1">
          <mxGeometry x="14.999999999999996" y="270" width="1060" height="20" as="geometry" />
        </mxCell>
        <mxCell id="YEgb1MkVtW5zTHGssSuD-16" value="&lt;font color=&quot;#000000&quot;&gt;BGP VPNv4 + IPv4&lt;/font&gt;" style="html=1;outlineConnect=0;fillColor=#f8cecc;strokeColor=#b85450;gradientDirection=north;strokeWidth=2;shape=mxgraph.networks.bus;gradientDirection=north;perimeter=backbonePerimeter;backboneSize=20;rotation=55;gradientColor=#ea6b66;" vertex="1" parent="TxQr1nFOBBhdp8WZAN2O-1">
          <mxGeometry x="-0.28" y="418.19" width="176.02" height="20" as="geometry" />
        </mxCell>
        <mxCell id="YEgb1MkVtW5zTHGssSuD-17" value="&lt;font color=&quot;#000000&quot;&gt;BGP VPNv4 + IPv4&lt;/font&gt;" style="html=1;outlineConnect=0;fillColor=#f8cecc;strokeColor=#b85450;gradientDirection=north;strokeWidth=2;shape=mxgraph.networks.bus;gradientDirection=north;perimeter=backbonePerimeter;backboneSize=20;rotation=-45;gradientColor=#ea6b66;" vertex="1" parent="TxQr1nFOBBhdp8WZAN2O-1">
          <mxGeometry x="940" y="430" width="156.02" height="20" as="geometry" />
        </mxCell>
        <mxCell id="YEgb1MkVtW5zTHGssSuD-18" value="&lt;font color=&quot;#000000&quot;&gt;BGP IPv4&lt;/font&gt;" style="html=1;outlineConnect=0;fillColor=#d5e8d4;strokeColor=#82b366;gradientDirection=north;strokeWidth=2;shape=mxgraph.networks.bus;gradientDirection=north;perimeter=backbonePerimeter;backboneSize=20;rotation=0;gradientColor=#97d077;" vertex="1" parent="TxQr1nFOBBhdp8WZAN2O-1">
          <mxGeometry x="51.99" y="320.28" width="188.01" height="20" as="geometry" />
        </mxCell>
        <mxCell id="YEgb1MkVtW5zTHGssSuD-19" value="&lt;font color=&quot;#000000&quot;&gt;BGP IPv4&lt;/font&gt;" style="html=1;outlineConnect=0;fillColor=#d5e8d4;strokeColor=#82b366;gradientDirection=north;strokeWidth=2;shape=mxgraph.networks.bus;gradientDirection=north;perimeter=backbonePerimeter;backboneSize=20;rotation=24;gradientColor=#97d077;" vertex="1" parent="TxQr1nFOBBhdp8WZAN2O-1">
          <mxGeometry x="55" y="420" width="375" height="20" as="geometry" />
        </mxCell>
        <mxCell id="YEgb1MkVtW5zTHGssSuD-20" value="&lt;font color=&quot;#000000&quot;&gt;BGP IPv4&lt;/font&gt;" style="html=1;outlineConnect=0;fillColor=#d5e8d4;strokeColor=#82b366;gradientDirection=north;strokeWidth=2;shape=mxgraph.networks.bus;gradientDirection=north;perimeter=backbonePerimeter;backboneSize=20;rotation=-25;gradientColor=#97d077;" vertex="1" parent="TxQr1nFOBBhdp8WZAN2O-1">
          <mxGeometry x="670.98" y="433.13" width="407.5" height="20" as="geometry" />
        </mxCell>
        <mxCell id="YEgb1MkVtW5zTHGssSuD-21" value="&lt;font style=&quot;font-size: 16px;&quot;&gt;VRF GREEN&lt;/font&gt;&lt;div&gt;&lt;span style=&quot;font-size: 16px;&quot;&gt;RD 1:1&lt;/span&gt;&lt;/div&gt;&lt;div&gt;&lt;span style=&quot;font-size: 16px;&quot;&gt;RT 100:1&lt;/span&gt;&lt;/div&gt;" style="text;html=1;align=left;verticalAlign=middle;resizable=0;points=[];autosize=1;strokeColor=none;fillColor=none;" vertex="1" parent="TxQr1nFOBBhdp8WZAN2O-1">
          <mxGeometry x="27.73" y="570" width="120" height="70" as="geometry" />
        </mxCell>
        <mxCell id="YEgb1MkVtW5zTHGssSuD-22" value="&lt;font style=&quot;font-size: 16px;&quot;&gt;VRF RED&lt;/font&gt;&lt;div&gt;&lt;span style=&quot;font-size: 16px;&quot;&gt;RD 2:1&lt;/span&gt;&lt;/div&gt;&lt;div&gt;&lt;span style=&quot;font-size: 16px;&quot;&gt;RT 100:1&lt;/span&gt;&lt;/div&gt;" style="text;html=1;align=left;verticalAlign=middle;resizable=0;points=[];autosize=1;strokeColor=none;fillColor=none;" vertex="1" parent="TxQr1nFOBBhdp8WZAN2O-1">
          <mxGeometry x="960" y="560" width="90" height="70" as="geometry" />
        </mxCell>
      </root>
    </mxGraphModel>
  </diagram>
  <diagram name="MPLS VPN OptionC-1" id="9-McA-F_kwNV3AUBiFLH">
    <mxGraphModel dx="2284" dy="836" grid="1" gridSize="10" guides="1" tooltips="1" connect="1" arrows="1" fold="1" page="1" pageScale="1" pageWidth="850" pageHeight="1100" math="0" shadow="0">
      <root>
        <mxCell id="0" />
        <mxCell id="1" parent="0" />
        <mxCell id="VTBzb_0bKhIEPCLyftcQ-83" value="" style="ellipse;shape=cloud;whiteSpace=wrap;html=1;fillColor=#f8cecc;gradientColor=#ea6b66;strokeColor=#b85450;" parent="1" vertex="1">
          <mxGeometry x="787.5" y="685" width="295" height="200" as="geometry" />
        </mxCell>
        <mxCell id="VTBzb_0bKhIEPCLyftcQ-82" value="" style="ellipse;shape=cloud;whiteSpace=wrap;html=1;fillColor=#d5e8d4;gradientColor=#97d077;strokeColor=#82b366;" parent="1" vertex="1">
          <mxGeometry x="-10" y="685" width="295" height="200" as="geometry" />
        </mxCell>
        <mxCell id="VTBzb_0bKhIEPCLyftcQ-76" value="" style="ellipse;shape=cloud;whiteSpace=wrap;html=1;fillColor=#dae8fc;gradientColor=#7ea6e0;strokeColor=#6c8ebf;" parent="1" vertex="1">
          <mxGeometry x="530" y="205" width="660" height="440" as="geometry" />
        </mxCell>
        <mxCell id="VTBzb_0bKhIEPCLyftcQ-75" value="" style="ellipse;shape=cloud;whiteSpace=wrap;html=1;fillColor=#fff2cc;gradientColor=#ffd966;strokeColor=#d6b656;" parent="1" vertex="1">
          <mxGeometry x="-140" y="205" width="660" height="440" as="geometry" />
        </mxCell>
        <mxCell id="VTBzb_0bKhIEPCLyftcQ-1" value="" style="sketch=0;points=[[0.5,0,0],[1,0.5,0],[0.5,1,0],[0,0.5,0],[0.145,0.145,0],[0.8555,0.145,0],[0.855,0.8555,0],[0.145,0.855,0]];verticalLabelPosition=bottom;html=1;verticalAlign=top;aspect=fixed;align=center;pointerEvents=1;shape=mxgraph.cisco19.rect;prIcon=router;fillColor=#FAFAFA;strokeColor=#005073;" parent="1" vertex="1">
          <mxGeometry x="1050" y="300" width="50" height="50" as="geometry" />
        </mxCell>
        <mxCell id="VTBzb_0bKhIEPCLyftcQ-4" value="" style="sketch=0;points=[[0.5,0,0],[1,0.5,0],[0.5,1,0],[0,0.5,0],[0.145,0.145,0],[0.8555,0.145,0],[0.855,0.8555,0],[0.145,0.855,0]];verticalLabelPosition=bottom;html=1;verticalAlign=top;aspect=fixed;align=center;pointerEvents=1;shape=mxgraph.cisco19.rect;prIcon=router;fillColor=#FAFAFA;strokeColor=#005073;" parent="1" vertex="1">
          <mxGeometry x="400" y="510" width="50" height="50" as="geometry" />
        </mxCell>
        <mxCell id="VTBzb_0bKhIEPCLyftcQ-6" value="" style="sketch=0;points=[[0.5,0,0],[1,0.5,0],[0.5,1,0],[0,0.5,0],[0.145,0.145,0],[0.8555,0.145,0],[0.855,0.8555,0],[0.145,0.855,0]];verticalLabelPosition=bottom;html=1;verticalAlign=top;aspect=fixed;align=center;pointerEvents=1;shape=mxgraph.cisco19.rect;prIcon=router;fillColor=#FAFAFA;strokeColor=#005073;" parent="1" vertex="1">
          <mxGeometry x="260" y="300" width="50" height="50" as="geometry" />
        </mxCell>
        <mxCell id="VTBzb_0bKhIEPCLyftcQ-7" value="" style="sketch=0;points=[[0.5,0,0],[1,0.5,0],[0.5,1,0],[0,0.5,0],[0.145,0.145,0],[0.8555,0.145,0],[0.855,0.8555,0],[0.145,0.855,0]];verticalLabelPosition=bottom;html=1;verticalAlign=top;aspect=fixed;align=center;pointerEvents=1;shape=mxgraph.cisco19.rect;prIcon=router;fillColor=#FAFAFA;strokeColor=#005073;" parent="1" vertex="1">
          <mxGeometry x="120" y="510" width="50" height="50" as="geometry" />
        </mxCell>
        <mxCell id="VTBzb_0bKhIEPCLyftcQ-8" value="" style="sketch=0;points=[[0.5,0,0],[1,0.5,0],[0.5,1,0],[0,0.5,0],[0.145,0.145,0],[0.8555,0.145,0],[0.855,0.8555,0],[0.145,0.855,0]];verticalLabelPosition=bottom;html=1;verticalAlign=top;aspect=fixed;align=center;pointerEvents=1;shape=mxgraph.cisco19.rect;prIcon=router;fillColor=#FAFAFA;strokeColor=#005073;" parent="1" vertex="1">
          <mxGeometry x="-10" y="300" width="50" height="50" as="geometry" />
        </mxCell>
        <mxCell id="VTBzb_0bKhIEPCLyftcQ-10" value="" style="endArrow=none;html=1;rounded=0;entryX=0.5;entryY=1;entryDx=0;entryDy=0;entryPerimeter=0;exitX=0.5;exitY=0;exitDx=0;exitDy=0;exitPerimeter=0;" parent="1" source="VTBzb_0bKhIEPCLyftcQ-7" target="VTBzb_0bKhIEPCLyftcQ-6" edge="1">
          <mxGeometry width="50" height="50" relative="1" as="geometry">
            <mxPoint x="610" y="450" as="sourcePoint" />
            <mxPoint x="660" y="400" as="targetPoint" />
          </mxGeometry>
        </mxCell>
        <mxCell id="VTBzb_0bKhIEPCLyftcQ-11" value="" style="endArrow=none;html=1;rounded=0;entryX=0.5;entryY=1;entryDx=0;entryDy=0;entryPerimeter=0;exitX=0.5;exitY=0;exitDx=0;exitDy=0;exitPerimeter=0;" parent="1" source="VTBzb_0bKhIEPCLyftcQ-4" target="VTBzb_0bKhIEPCLyftcQ-6" edge="1">
          <mxGeometry width="50" height="50" relative="1" as="geometry">
            <mxPoint x="610" y="450" as="sourcePoint" />
            <mxPoint x="660" y="400" as="targetPoint" />
          </mxGeometry>
        </mxCell>
        <mxCell id="VTBzb_0bKhIEPCLyftcQ-14" value="" style="endArrow=none;html=1;rounded=0;entryX=0;entryY=0.5;entryDx=0;entryDy=0;entryPerimeter=0;exitX=1;exitY=0.5;exitDx=0;exitDy=0;exitPerimeter=0;" parent="1" source="VTBzb_0bKhIEPCLyftcQ-4" target="VTBzb_0bKhIEPCLyftcQ-18" edge="1">
          <mxGeometry width="50" height="50" relative="1" as="geometry">
            <mxPoint x="435" y="520" as="sourcePoint" />
            <mxPoint x="630" y="535" as="targetPoint" />
          </mxGeometry>
        </mxCell>
        <mxCell id="VTBzb_0bKhIEPCLyftcQ-16" value="" style="sketch=0;points=[[0.5,0,0],[1,0.5,0],[0.5,1,0],[0,0.5,0],[0.145,0.145,0],[0.8555,0.145,0],[0.855,0.8555,0],[0.145,0.855,0]];verticalLabelPosition=bottom;html=1;verticalAlign=top;aspect=fixed;align=center;pointerEvents=1;shape=mxgraph.cisco19.rect;prIcon=router;fillColor=#FAFAFA;strokeColor=#005073;" parent="1" vertex="1">
          <mxGeometry x="910" y="510" width="50" height="50" as="geometry" />
        </mxCell>
        <mxCell id="VTBzb_0bKhIEPCLyftcQ-17" value="" style="sketch=0;points=[[0.5,0,0],[1,0.5,0],[0.5,1,0],[0,0.5,0],[0.145,0.145,0],[0.8555,0.145,0],[0.855,0.8555,0],[0.145,0.855,0]];verticalLabelPosition=bottom;html=1;verticalAlign=top;aspect=fixed;align=center;pointerEvents=1;shape=mxgraph.cisco19.rect;prIcon=router;fillColor=#FAFAFA;strokeColor=#005073;" parent="1" vertex="1">
          <mxGeometry x="770" y="300" width="50" height="50" as="geometry" />
        </mxCell>
        <mxCell id="VTBzb_0bKhIEPCLyftcQ-18" value="" style="sketch=0;points=[[0.5,0,0],[1,0.5,0],[0.5,1,0],[0,0.5,0],[0.145,0.145,0],[0.8555,0.145,0],[0.855,0.8555,0],[0.145,0.855,0]];verticalLabelPosition=bottom;html=1;verticalAlign=top;aspect=fixed;align=center;pointerEvents=1;shape=mxgraph.cisco19.rect;prIcon=router;fillColor=#FAFAFA;strokeColor=#005073;" parent="1" vertex="1">
          <mxGeometry x="630" y="510" width="50" height="50" as="geometry" />
        </mxCell>
        <mxCell id="VTBzb_0bKhIEPCLyftcQ-19" value="" style="endArrow=none;html=1;rounded=0;entryX=0.5;entryY=1;entryDx=0;entryDy=0;entryPerimeter=0;exitX=0.5;exitY=0;exitDx=0;exitDy=0;exitPerimeter=0;" parent="1" source="VTBzb_0bKhIEPCLyftcQ-18" target="VTBzb_0bKhIEPCLyftcQ-17" edge="1">
          <mxGeometry width="50" height="50" relative="1" as="geometry">
            <mxPoint x="1120" y="450" as="sourcePoint" />
            <mxPoint x="1170" y="400" as="targetPoint" />
          </mxGeometry>
        </mxCell>
        <mxCell id="VTBzb_0bKhIEPCLyftcQ-20" value="" style="endArrow=none;html=1;rounded=0;entryX=0.5;entryY=1;entryDx=0;entryDy=0;entryPerimeter=0;exitX=0.5;exitY=0;exitDx=0;exitDy=0;exitPerimeter=0;" parent="1" source="VTBzb_0bKhIEPCLyftcQ-16" target="VTBzb_0bKhIEPCLyftcQ-17" edge="1">
          <mxGeometry width="50" height="50" relative="1" as="geometry">
            <mxPoint x="1120" y="450" as="sourcePoint" />
            <mxPoint x="1170" y="400" as="targetPoint" />
          </mxGeometry>
        </mxCell>
        <mxCell id="VTBzb_0bKhIEPCLyftcQ-26" value="" style="endArrow=none;html=1;rounded=0;entryX=1;entryY=0.5;entryDx=0;entryDy=0;entryPerimeter=0;exitX=0;exitY=0.5;exitDx=0;exitDy=0;exitPerimeter=0;" parent="1" source="VTBzb_0bKhIEPCLyftcQ-6" target="VTBzb_0bKhIEPCLyftcQ-8" edge="1">
          <mxGeometry width="50" height="50" relative="1" as="geometry">
            <mxPoint x="610" y="450" as="sourcePoint" />
            <mxPoint x="660" y="400" as="targetPoint" />
          </mxGeometry>
        </mxCell>
        <mxCell id="VTBzb_0bKhIEPCLyftcQ-27" value="" style="endArrow=none;html=1;rounded=0;entryX=1;entryY=0.5;entryDx=0;entryDy=0;entryPerimeter=0;exitX=0;exitY=0.5;exitDx=0;exitDy=0;exitPerimeter=0;" parent="1" source="VTBzb_0bKhIEPCLyftcQ-1" target="VTBzb_0bKhIEPCLyftcQ-17" edge="1">
          <mxGeometry width="50" height="50" relative="1" as="geometry">
            <mxPoint x="270" y="335" as="sourcePoint" />
            <mxPoint x="50" y="335" as="targetPoint" />
          </mxGeometry>
        </mxCell>
        <mxCell id="VTBzb_0bKhIEPCLyftcQ-28" value="" style="sketch=0;points=[[0.5,0,0],[1,0.5,0],[0.5,1,0],[0,0.5,0],[0.145,0.145,0],[0.8555,0.145,0],[0.855,0.8555,0],[0.145,0.855,0]];verticalLabelPosition=bottom;html=1;verticalAlign=top;aspect=fixed;align=center;pointerEvents=1;shape=mxgraph.cisco19.rect;prIcon=router;fillColor=#FAFAFA;strokeColor=#005073;" parent="1" vertex="1">
          <mxGeometry x="910" y="760" width="50" height="50" as="geometry" />
        </mxCell>
        <mxCell id="VTBzb_0bKhIEPCLyftcQ-29" value="" style="sketch=0;points=[[0.5,0,0],[1,0.5,0],[0.5,1,0],[0,0.5,0],[0.145,0.145,0],[0.8555,0.145,0],[0.855,0.8555,0],[0.145,0.855,0]];verticalLabelPosition=bottom;html=1;verticalAlign=top;aspect=fixed;align=center;pointerEvents=1;shape=mxgraph.cisco19.rect;prIcon=router;fillColor=#FAFAFA;strokeColor=#005073;" parent="1" vertex="1">
          <mxGeometry x="120" y="760" width="50" height="50" as="geometry" />
        </mxCell>
        <mxCell id="VTBzb_0bKhIEPCLyftcQ-30" value="" style="endArrow=none;html=1;rounded=0;entryX=0.5;entryY=1;entryDx=0;entryDy=0;entryPerimeter=0;exitX=0.5;exitY=0;exitDx=0;exitDy=0;exitPerimeter=0;" parent="1" source="VTBzb_0bKhIEPCLyftcQ-29" target="VTBzb_0bKhIEPCLyftcQ-7" edge="1">
          <mxGeometry width="50" height="50" relative="1" as="geometry">
            <mxPoint x="610" y="650" as="sourcePoint" />
            <mxPoint x="660" y="600" as="targetPoint" />
          </mxGeometry>
        </mxCell>
        <mxCell id="VTBzb_0bKhIEPCLyftcQ-34" value="" style="endArrow=none;html=1;rounded=0;entryX=0.5;entryY=1;entryDx=0;entryDy=0;entryPerimeter=0;exitX=0.5;exitY=0;exitDx=0;exitDy=0;exitPerimeter=0;" parent="1" source="VTBzb_0bKhIEPCLyftcQ-28" target="VTBzb_0bKhIEPCLyftcQ-16" edge="1">
          <mxGeometry width="50" height="50" relative="1" as="geometry">
            <mxPoint x="155" y="770" as="sourcePoint" />
            <mxPoint x="155" y="570" as="targetPoint" />
          </mxGeometry>
        </mxCell>
        <mxCell id="VTBzb_0bKhIEPCLyftcQ-35" value="&lt;font style=&quot;font-size: 16px;&quot;&gt;RR1&lt;/font&gt;" style="text;html=1;align=center;verticalAlign=middle;resizable=0;points=[];autosize=1;strokeColor=none;fillColor=none;" parent="1" vertex="1">
          <mxGeometry x="-15" y="350" width="60" height="30" as="geometry" />
        </mxCell>
        <mxCell id="VTBzb_0bKhIEPCLyftcQ-36" value="&lt;font style=&quot;font-size: 16px;&quot;&gt;RR2&lt;/font&gt;" style="text;html=1;align=center;verticalAlign=middle;resizable=0;points=[];autosize=1;strokeColor=none;fillColor=none;" parent="1" vertex="1">
          <mxGeometry x="1045" y="350" width="60" height="30" as="geometry" />
        </mxCell>
        <mxCell id="VTBzb_0bKhIEPCLyftcQ-37" value="&lt;font style=&quot;font-size: 16px;&quot;&gt;R3&lt;/font&gt;" style="text;html=1;align=center;verticalAlign=middle;resizable=0;points=[];autosize=1;strokeColor=none;fillColor=none;" parent="1" vertex="1">
          <mxGeometry x="265" y="260" width="40" height="30" as="geometry" />
        </mxCell>
        <mxCell id="VTBzb_0bKhIEPCLyftcQ-38" value="&lt;font style=&quot;font-size: 16px;&quot;&gt;R2&lt;/font&gt;" style="text;html=1;align=center;verticalAlign=middle;resizable=0;points=[];autosize=1;strokeColor=none;fillColor=none;" parent="1" vertex="1">
          <mxGeometry x="75" y="520" width="40" height="30" as="geometry" />
        </mxCell>
        <mxCell id="VTBzb_0bKhIEPCLyftcQ-39" value="&lt;font style=&quot;font-size: 16px;&quot;&gt;R1&lt;/font&gt;" style="text;html=1;align=center;verticalAlign=middle;resizable=0;points=[];autosize=1;strokeColor=none;fillColor=none;" parent="1" vertex="1">
          <mxGeometry x="75" y="770" width="40" height="30" as="geometry" />
        </mxCell>
        <mxCell id="VTBzb_0bKhIEPCLyftcQ-40" value="&lt;font style=&quot;font-size: 16px;&quot;&gt;R4&lt;/font&gt;" style="text;html=1;align=center;verticalAlign=middle;resizable=0;points=[];autosize=1;strokeColor=none;fillColor=none;" parent="1" vertex="1">
          <mxGeometry x="405" y="570" width="40" height="30" as="geometry" />
        </mxCell>
        <mxCell id="VTBzb_0bKhIEPCLyftcQ-41" value="&lt;font style=&quot;font-size: 16px;&quot;&gt;R5&lt;/font&gt;" style="text;html=1;align=center;verticalAlign=middle;resizable=0;points=[];autosize=1;strokeColor=none;fillColor=none;" parent="1" vertex="1">
          <mxGeometry x="635" y="570" width="40" height="30" as="geometry" />
        </mxCell>
        <mxCell id="VTBzb_0bKhIEPCLyftcQ-42" value="&lt;font style=&quot;font-size: 16px;&quot;&gt;R6&lt;/font&gt;" style="text;html=1;align=center;verticalAlign=middle;resizable=0;points=[];autosize=1;strokeColor=none;fillColor=none;" parent="1" vertex="1">
          <mxGeometry x="775" y="260" width="40" height="30" as="geometry" />
        </mxCell>
        <mxCell id="VTBzb_0bKhIEPCLyftcQ-43" value="&lt;font style=&quot;font-size: 16px;&quot;&gt;R7&lt;/font&gt;" style="text;html=1;align=center;verticalAlign=middle;resizable=0;points=[];autosize=1;strokeColor=none;fillColor=none;" parent="1" vertex="1">
          <mxGeometry x="975" y="520" width="40" height="30" as="geometry" />
        </mxCell>
        <mxCell id="VTBzb_0bKhIEPCLyftcQ-44" value="&lt;font style=&quot;font-size: 16px;&quot;&gt;R8&lt;/font&gt;" style="text;html=1;align=center;verticalAlign=middle;resizable=0;points=[];autosize=1;strokeColor=none;fillColor=none;" parent="1" vertex="1">
          <mxGeometry x="975" y="770" width="40" height="30" as="geometry" />
        </mxCell>
        <mxCell id="VTBzb_0bKhIEPCLyftcQ-45" value="G0/0" style="text;html=1;align=center;verticalAlign=middle;resizable=0;points=[];autosize=1;strokeColor=none;fillColor=none;" parent="1" vertex="1">
          <mxGeometry x="210" y="290" width="50" height="30" as="geometry" />
        </mxCell>
        <mxCell id="VTBzb_0bKhIEPCLyftcQ-46" value="G0/0" style="text;html=1;align=center;verticalAlign=middle;resizable=0;points=[];autosize=1;strokeColor=none;fillColor=none;" parent="1" vertex="1">
          <mxGeometry x="30" y="290" width="50" height="30" as="geometry" />
        </mxCell>
        <mxCell id="VTBzb_0bKhIEPCLyftcQ-47" value="G0/0" style="text;html=1;align=center;verticalAlign=middle;resizable=0;points=[];autosize=1;strokeColor=none;fillColor=none;" parent="1" vertex="1">
          <mxGeometry x="815" y="290" width="50" height="30" as="geometry" />
        </mxCell>
        <mxCell id="VTBzb_0bKhIEPCLyftcQ-48" value="G0/0" style="text;html=1;align=center;verticalAlign=middle;resizable=0;points=[];autosize=1;strokeColor=none;fillColor=none;" parent="1" vertex="1">
          <mxGeometry x="1000" y="290" width="50" height="30" as="geometry" />
        </mxCell>
        <mxCell id="VTBzb_0bKhIEPCLyftcQ-49" value="G0/0" style="text;html=1;align=center;verticalAlign=middle;resizable=0;points=[];autosize=1;strokeColor=none;fillColor=none;" parent="1" vertex="1">
          <mxGeometry x="450" y="500" width="50" height="30" as="geometry" />
        </mxCell>
        <mxCell id="VTBzb_0bKhIEPCLyftcQ-50" value="G0/0" style="text;html=1;align=center;verticalAlign=middle;resizable=0;points=[];autosize=1;strokeColor=none;fillColor=none;" parent="1" vertex="1">
          <mxGeometry x="580" y="500" width="50" height="30" as="geometry" />
        </mxCell>
        <mxCell id="VTBzb_0bKhIEPCLyftcQ-51" value="G0/0" style="text;html=1;align=center;verticalAlign=middle;resizable=0;points=[];autosize=1;strokeColor=none;fillColor=none;" parent="1" vertex="1">
          <mxGeometry x="90" y="560" width="50" height="30" as="geometry" />
        </mxCell>
        <mxCell id="VTBzb_0bKhIEPCLyftcQ-52" value="G0/0" style="text;html=1;align=center;verticalAlign=middle;resizable=0;points=[];autosize=1;strokeColor=none;fillColor=none;" parent="1" vertex="1">
          <mxGeometry x="90" y="730" width="50" height="30" as="geometry" />
        </mxCell>
        <mxCell id="VTBzb_0bKhIEPCLyftcQ-53" value="G0/0" style="text;html=1;align=center;verticalAlign=middle;resizable=0;points=[];autosize=1;strokeColor=none;fillColor=none;" parent="1" vertex="1">
          <mxGeometry x="940" y="560" width="50" height="30" as="geometry" />
        </mxCell>
        <mxCell id="VTBzb_0bKhIEPCLyftcQ-54" value="G0/0" style="text;html=1;align=center;verticalAlign=middle;resizable=0;points=[];autosize=1;strokeColor=none;fillColor=none;" parent="1" vertex="1">
          <mxGeometry x="940" y="730" width="50" height="30" as="geometry" />
        </mxCell>
        <mxCell id="VTBzb_0bKhIEPCLyftcQ-55" value="G0/1" style="text;html=1;align=center;verticalAlign=middle;resizable=0;points=[];autosize=1;strokeColor=none;fillColor=none;" parent="1" vertex="1">
          <mxGeometry x="110" y="480" width="50" height="30" as="geometry" />
        </mxCell>
        <mxCell id="VTBzb_0bKhIEPCLyftcQ-56" value="G0/1" style="text;html=1;align=center;verticalAlign=middle;resizable=0;points=[];autosize=1;strokeColor=none;fillColor=none;" parent="1" vertex="1">
          <mxGeometry x="230" y="340" width="50" height="30" as="geometry" />
        </mxCell>
        <mxCell id="VTBzb_0bKhIEPCLyftcQ-57" value="G0/2" style="text;html=1;align=center;verticalAlign=middle;resizable=0;points=[];autosize=1;strokeColor=none;fillColor=none;" parent="1" vertex="1">
          <mxGeometry x="300" y="340" width="50" height="30" as="geometry" />
        </mxCell>
        <mxCell id="VTBzb_0bKhIEPCLyftcQ-58" value="G0/2" style="text;html=1;align=center;verticalAlign=middle;resizable=0;points=[];autosize=1;strokeColor=none;fillColor=none;" parent="1" vertex="1">
          <mxGeometry x="405" y="470" width="50" height="30" as="geometry" />
        </mxCell>
        <mxCell id="VTBzb_0bKhIEPCLyftcQ-60" value="G0/1" style="text;html=1;align=center;verticalAlign=middle;resizable=0;points=[];autosize=1;strokeColor=none;fillColor=none;" parent="1" vertex="1">
          <mxGeometry x="810" y="340" width="50" height="30" as="geometry" />
        </mxCell>
        <mxCell id="VTBzb_0bKhIEPCLyftcQ-61" value="G0/1" style="text;html=1;align=center;verticalAlign=middle;resizable=0;points=[];autosize=1;strokeColor=none;fillColor=none;" parent="1" vertex="1">
          <mxGeometry x="925" y="480" width="50" height="30" as="geometry" />
        </mxCell>
        <mxCell id="VTBzb_0bKhIEPCLyftcQ-62" value="G0/2" style="text;html=1;align=center;verticalAlign=middle;resizable=0;points=[];autosize=1;strokeColor=none;fillColor=none;" parent="1" vertex="1">
          <mxGeometry x="620" y="470" width="50" height="30" as="geometry" />
        </mxCell>
        <mxCell id="VTBzb_0bKhIEPCLyftcQ-63" value="G0/2" style="text;html=1;align=center;verticalAlign=middle;resizable=0;points=[];autosize=1;strokeColor=none;fillColor=none;" parent="1" vertex="1">
          <mxGeometry x="725" y="340" width="50" height="30" as="geometry" />
        </mxCell>
        <mxCell id="VTBzb_0bKhIEPCLyftcQ-64" value="12.1.1.0/24" style="text;html=1;align=center;verticalAlign=middle;resizable=0;points=[];autosize=1;strokeColor=none;fillColor=none;" parent="1" vertex="1">
          <mxGeometry x="60" y="640" width="80" height="30" as="geometry" />
        </mxCell>
        <mxCell id="VTBzb_0bKhIEPCLyftcQ-65" value="23.1.1.0/24" style="text;html=1;align=center;verticalAlign=middle;resizable=0;points=[];autosize=1;strokeColor=none;fillColor=none;" parent="1" vertex="1">
          <mxGeometry x="140" y="410" width="80" height="30" as="geometry" />
        </mxCell>
        <mxCell id="VTBzb_0bKhIEPCLyftcQ-66" value="34.1.1.0/24" style="text;html=1;align=center;verticalAlign=middle;resizable=0;points=[];autosize=1;strokeColor=none;fillColor=none;" parent="1" vertex="1">
          <mxGeometry x="350" y="410" width="80" height="30" as="geometry" />
        </mxCell>
        <mxCell id="VTBzb_0bKhIEPCLyftcQ-67" value="56.1.1.0/24" style="text;html=1;align=center;verticalAlign=middle;resizable=0;points=[];autosize=1;strokeColor=none;fillColor=none;" parent="1" vertex="1">
          <mxGeometry x="645" y="410" width="80" height="30" as="geometry" />
        </mxCell>
        <mxCell id="VTBzb_0bKhIEPCLyftcQ-68" value="67.1.1.0/24" style="text;html=1;align=center;verticalAlign=middle;resizable=0;points=[];autosize=1;strokeColor=none;fillColor=none;" parent="1" vertex="1">
          <mxGeometry x="865" y="410" width="80" height="30" as="geometry" />
        </mxCell>
        <mxCell id="VTBzb_0bKhIEPCLyftcQ-69" value="13.1.1.0/24" style="text;html=1;align=center;verticalAlign=middle;resizable=0;points=[];autosize=1;strokeColor=none;fillColor=none;" parent="1" vertex="1">
          <mxGeometry x="90" y="290" width="80" height="30" as="geometry" />
        </mxCell>
        <mxCell id="VTBzb_0bKhIEPCLyftcQ-70" value="45.1.1.0/24" style="text;html=1;align=center;verticalAlign=middle;resizable=0;points=[];autosize=1;strokeColor=none;fillColor=none;" parent="1" vertex="1">
          <mxGeometry x="500" y="500" width="80" height="30" as="geometry" />
        </mxCell>
        <mxCell id="VTBzb_0bKhIEPCLyftcQ-71" value="26.1.1.0/24" style="text;html=1;align=center;verticalAlign=middle;resizable=0;points=[];autosize=1;strokeColor=none;fillColor=none;" parent="1" vertex="1">
          <mxGeometry x="895" y="290" width="80" height="30" as="geometry" />
        </mxCell>
        <mxCell id="VTBzb_0bKhIEPCLyftcQ-72" value="87.1.1.0/24" style="text;html=1;align=center;verticalAlign=middle;resizable=0;points=[];autosize=1;strokeColor=none;fillColor=none;" parent="1" vertex="1">
          <mxGeometry x="940" y="640" width="80" height="30" as="geometry" />
        </mxCell>
        <mxCell id="VTBzb_0bKhIEPCLyftcQ-78" value="&lt;font style=&quot;font-size: 20px;&quot;&gt;AS 65001&lt;/font&gt;" style="text;html=1;align=center;verticalAlign=middle;resizable=0;points=[];autosize=1;strokeColor=none;fillColor=none;" parent="1" vertex="1">
          <mxGeometry x="-80" y="380" width="110" height="40" as="geometry" />
        </mxCell>
        <mxCell id="VTBzb_0bKhIEPCLyftcQ-79" value="&lt;font style=&quot;font-size: 20px;&quot;&gt;AS 65002&lt;/font&gt;" style="text;html=1;align=center;verticalAlign=middle;resizable=0;points=[];autosize=1;strokeColor=none;fillColor=none;" parent="1" vertex="1">
          <mxGeometry x="1005" y="380" width="110" height="40" as="geometry" />
        </mxCell>
        <mxCell id="VTBzb_0bKhIEPCLyftcQ-84" value="&lt;font style=&quot;font-size: 20px;&quot;&gt;AS 100&lt;/font&gt;" style="text;html=1;align=center;verticalAlign=middle;resizable=0;points=[];autosize=1;strokeColor=none;fillColor=none;" parent="1" vertex="1">
          <mxGeometry x="90" y="820" width="90" height="40" as="geometry" />
        </mxCell>
        <mxCell id="VTBzb_0bKhIEPCLyftcQ-85" value="&lt;font style=&quot;font-size: 20px;&quot;&gt;AS 200&lt;/font&gt;" style="text;html=1;align=center;verticalAlign=middle;resizable=0;points=[];autosize=1;strokeColor=none;fillColor=none;" parent="1" vertex="1">
          <mxGeometry x="890" y="820" width="90" height="40" as="geometry" />
        </mxCell>
        <mxCell id="YHJHXUyYnBTejx8aPUNm-1" value="lo0 192.168.1.1/24" style="text;html=1;align=center;verticalAlign=middle;resizable=0;points=[];autosize=1;strokeColor=none;fillColor=none;" vertex="1" parent="1">
          <mxGeometry x="165" y="770" width="120" height="30" as="geometry" />
        </mxCell>
        <mxCell id="YHJHXUyYnBTejx8aPUNm-2" value="lo0 192.168.2.1/24" style="text;html=1;align=center;verticalAlign=middle;resizable=0;points=[];autosize=1;strokeColor=none;fillColor=none;" vertex="1" parent="1">
          <mxGeometry x="787.5" y="770" width="120" height="30" as="geometry" />
        </mxCell>
      </root>
    </mxGraphModel>
  </diagram>
  <diagram name=" MPLS VPN OptionA" id="gPw-emJ-s44bEH8RF0Sg">
    <mxGraphModel dx="2284" dy="836" grid="1" gridSize="10" guides="1" tooltips="1" connect="1" arrows="1" fold="1" page="1" pageScale="1" pageWidth="850" pageHeight="1100" math="0" shadow="0">
      <root>
        <mxCell id="LHZKAzgyvmtLjbCMyj0f-0" />
        <mxCell id="LHZKAzgyvmtLjbCMyj0f-1" parent="LHZKAzgyvmtLjbCMyj0f-0" />
        <mxCell id="LHZKAzgyvmtLjbCMyj0f-2" value="" style="ellipse;shape=cloud;whiteSpace=wrap;html=1;fillColor=#f8cecc;gradientColor=#ea6b66;strokeColor=#b85450;" vertex="1" parent="LHZKAzgyvmtLjbCMyj0f-1">
          <mxGeometry x="877.5" y="685" width="295" height="200" as="geometry" />
        </mxCell>
        <mxCell id="LHZKAzgyvmtLjbCMyj0f-3" value="" style="ellipse;shape=cloud;whiteSpace=wrap;html=1;fillColor=#d5e8d4;gradientColor=#97d077;strokeColor=#82b366;" vertex="1" parent="LHZKAzgyvmtLjbCMyj0f-1">
          <mxGeometry x="-10" y="685" width="295" height="200" as="geometry" />
        </mxCell>
        <mxCell id="LHZKAzgyvmtLjbCMyj0f-4" value="" style="ellipse;shape=cloud;whiteSpace=wrap;html=1;fillColor=#dae8fc;gradientColor=#7ea6e0;strokeColor=#6c8ebf;" vertex="1" parent="LHZKAzgyvmtLjbCMyj0f-1">
          <mxGeometry x="540" y="205" width="660" height="440" as="geometry" />
        </mxCell>
        <mxCell id="LHZKAzgyvmtLjbCMyj0f-5" value="" style="ellipse;shape=cloud;whiteSpace=wrap;html=1;fillColor=#fff2cc;gradientColor=#ffd966;strokeColor=#d6b656;" vertex="1" parent="LHZKAzgyvmtLjbCMyj0f-1">
          <mxGeometry x="-60" y="205" width="660" height="440" as="geometry" />
        </mxCell>
        <mxCell id="LHZKAzgyvmtLjbCMyj0f-7" value="" style="sketch=0;points=[[0.5,0,0],[1,0.5,0],[0.5,1,0],[0,0.5,0],[0.145,0.145,0],[0.8555,0.145,0],[0.855,0.8555,0],[0.145,0.855,0]];verticalLabelPosition=bottom;html=1;verticalAlign=top;aspect=fixed;align=center;pointerEvents=1;shape=mxgraph.cisco19.rect;prIcon=router;fillColor=#FAFAFA;strokeColor=#005073;" vertex="1" parent="LHZKAzgyvmtLjbCMyj0f-1">
          <mxGeometry x="400" y="510" width="50" height="50" as="geometry" />
        </mxCell>
        <mxCell id="LHZKAzgyvmtLjbCMyj0f-8" value="" style="sketch=0;points=[[0.5,0,0],[1,0.5,0],[0.5,1,0],[0,0.5,0],[0.145,0.145,0],[0.8555,0.145,0],[0.855,0.8555,0],[0.145,0.855,0]];verticalLabelPosition=bottom;html=1;verticalAlign=top;aspect=fixed;align=center;pointerEvents=1;shape=mxgraph.cisco19.rect;prIcon=router;fillColor=#FAFAFA;strokeColor=#005073;" vertex="1" parent="LHZKAzgyvmtLjbCMyj0f-1">
          <mxGeometry x="260" y="300" width="50" height="50" as="geometry" />
        </mxCell>
        <mxCell id="LHZKAzgyvmtLjbCMyj0f-9" value="" style="sketch=0;points=[[0.5,0,0],[1,0.5,0],[0.5,1,0],[0,0.5,0],[0.145,0.145,0],[0.8555,0.145,0],[0.855,0.8555,0],[0.145,0.855,0]];verticalLabelPosition=bottom;html=1;verticalAlign=top;aspect=fixed;align=center;pointerEvents=1;shape=mxgraph.cisco19.rect;prIcon=router;fillColor=#FAFAFA;strokeColor=#005073;" vertex="1" parent="LHZKAzgyvmtLjbCMyj0f-1">
          <mxGeometry x="120" y="510" width="50" height="50" as="geometry" />
        </mxCell>
        <mxCell id="LHZKAzgyvmtLjbCMyj0f-11" value="" style="endArrow=none;html=1;rounded=0;entryX=0.5;entryY=1;entryDx=0;entryDy=0;entryPerimeter=0;exitX=0.5;exitY=0;exitDx=0;exitDy=0;exitPerimeter=0;" edge="1" parent="LHZKAzgyvmtLjbCMyj0f-1" source="LHZKAzgyvmtLjbCMyj0f-9" target="LHZKAzgyvmtLjbCMyj0f-8">
          <mxGeometry width="50" height="50" relative="1" as="geometry">
            <mxPoint x="610" y="450" as="sourcePoint" />
            <mxPoint x="660" y="400" as="targetPoint" />
          </mxGeometry>
        </mxCell>
        <mxCell id="LHZKAzgyvmtLjbCMyj0f-12" value="" style="endArrow=none;html=1;rounded=0;entryX=0.5;entryY=1;entryDx=0;entryDy=0;entryPerimeter=0;exitX=0.5;exitY=0;exitDx=0;exitDy=0;exitPerimeter=0;" edge="1" parent="LHZKAzgyvmtLjbCMyj0f-1" source="LHZKAzgyvmtLjbCMyj0f-7" target="LHZKAzgyvmtLjbCMyj0f-8">
          <mxGeometry width="50" height="50" relative="1" as="geometry">
            <mxPoint x="610" y="450" as="sourcePoint" />
            <mxPoint x="660" y="400" as="targetPoint" />
          </mxGeometry>
        </mxCell>
        <mxCell id="LHZKAzgyvmtLjbCMyj0f-13" value="" style="endArrow=none;html=1;rounded=0;entryX=0;entryY=0.5;entryDx=0;entryDy=0;entryPerimeter=0;exitX=1;exitY=0.5;exitDx=0;exitDy=0;exitPerimeter=0;" edge="1" parent="LHZKAzgyvmtLjbCMyj0f-1" source="LHZKAzgyvmtLjbCMyj0f-7" target="LHZKAzgyvmtLjbCMyj0f-16">
          <mxGeometry width="50" height="50" relative="1" as="geometry">
            <mxPoint x="435" y="520" as="sourcePoint" />
            <mxPoint x="630" y="535" as="targetPoint" />
          </mxGeometry>
        </mxCell>
        <mxCell id="LHZKAzgyvmtLjbCMyj0f-14" value="" style="sketch=0;points=[[0.5,0,0],[1,0.5,0],[0.5,1,0],[0,0.5,0],[0.145,0.145,0],[0.8555,0.145,0],[0.855,0.8555,0],[0.145,0.855,0]];verticalLabelPosition=bottom;html=1;verticalAlign=top;aspect=fixed;align=center;pointerEvents=1;shape=mxgraph.cisco19.rect;prIcon=router;fillColor=#FAFAFA;strokeColor=#005073;" vertex="1" parent="LHZKAzgyvmtLjbCMyj0f-1">
          <mxGeometry x="1000" y="510" width="50" height="50" as="geometry" />
        </mxCell>
        <mxCell id="LHZKAzgyvmtLjbCMyj0f-15" value="" style="sketch=0;points=[[0.5,0,0],[1,0.5,0],[0.5,1,0],[0,0.5,0],[0.145,0.145,0],[0.8555,0.145,0],[0.855,0.8555,0],[0.145,0.855,0]];verticalLabelPosition=bottom;html=1;verticalAlign=top;aspect=fixed;align=center;pointerEvents=1;shape=mxgraph.cisco19.rect;prIcon=router;fillColor=#FAFAFA;strokeColor=#005073;" vertex="1" parent="LHZKAzgyvmtLjbCMyj0f-1">
          <mxGeometry x="860" y="300" width="50" height="50" as="geometry" />
        </mxCell>
        <mxCell id="LHZKAzgyvmtLjbCMyj0f-16" value="" style="sketch=0;points=[[0.5,0,0],[1,0.5,0],[0.5,1,0],[0,0.5,0],[0.145,0.145,0],[0.8555,0.145,0],[0.855,0.8555,0],[0.145,0.855,0]];verticalLabelPosition=bottom;html=1;verticalAlign=top;aspect=fixed;align=center;pointerEvents=1;shape=mxgraph.cisco19.rect;prIcon=router;fillColor=#FAFAFA;strokeColor=#005073;" vertex="1" parent="LHZKAzgyvmtLjbCMyj0f-1">
          <mxGeometry x="720" y="510" width="50" height="50" as="geometry" />
        </mxCell>
        <mxCell id="LHZKAzgyvmtLjbCMyj0f-17" value="" style="endArrow=none;html=1;rounded=0;entryX=0.5;entryY=1;entryDx=0;entryDy=0;entryPerimeter=0;exitX=0.5;exitY=0;exitDx=0;exitDy=0;exitPerimeter=0;" edge="1" parent="LHZKAzgyvmtLjbCMyj0f-1" source="LHZKAzgyvmtLjbCMyj0f-16" target="LHZKAzgyvmtLjbCMyj0f-15">
          <mxGeometry width="50" height="50" relative="1" as="geometry">
            <mxPoint x="1210" y="450" as="sourcePoint" />
            <mxPoint x="1260" y="400" as="targetPoint" />
          </mxGeometry>
        </mxCell>
        <mxCell id="LHZKAzgyvmtLjbCMyj0f-18" value="" style="endArrow=none;html=1;rounded=0;entryX=0.5;entryY=1;entryDx=0;entryDy=0;entryPerimeter=0;exitX=0.5;exitY=0;exitDx=0;exitDy=0;exitPerimeter=0;" edge="1" parent="LHZKAzgyvmtLjbCMyj0f-1" source="LHZKAzgyvmtLjbCMyj0f-14" target="LHZKAzgyvmtLjbCMyj0f-15">
          <mxGeometry width="50" height="50" relative="1" as="geometry">
            <mxPoint x="1210" y="450" as="sourcePoint" />
            <mxPoint x="1260" y="400" as="targetPoint" />
          </mxGeometry>
        </mxCell>
        <mxCell id="LHZKAzgyvmtLjbCMyj0f-21" value="" style="sketch=0;points=[[0.5,0,0],[1,0.5,0],[0.5,1,0],[0,0.5,0],[0.145,0.145,0],[0.8555,0.145,0],[0.855,0.8555,0],[0.145,0.855,0]];verticalLabelPosition=bottom;html=1;verticalAlign=top;aspect=fixed;align=center;pointerEvents=1;shape=mxgraph.cisco19.rect;prIcon=router;fillColor=#FAFAFA;strokeColor=#005073;" vertex="1" parent="LHZKAzgyvmtLjbCMyj0f-1">
          <mxGeometry x="1000" y="760" width="50" height="50" as="geometry" />
        </mxCell>
        <mxCell id="LHZKAzgyvmtLjbCMyj0f-22" value="" style="sketch=0;points=[[0.5,0,0],[1,0.5,0],[0.5,1,0],[0,0.5,0],[0.145,0.145,0],[0.8555,0.145,0],[0.855,0.8555,0],[0.145,0.855,0]];verticalLabelPosition=bottom;html=1;verticalAlign=top;aspect=fixed;align=center;pointerEvents=1;shape=mxgraph.cisco19.rect;prIcon=router;fillColor=#FAFAFA;strokeColor=#005073;" vertex="1" parent="LHZKAzgyvmtLjbCMyj0f-1">
          <mxGeometry x="120" y="760" width="50" height="50" as="geometry" />
        </mxCell>
        <mxCell id="LHZKAzgyvmtLjbCMyj0f-23" value="" style="endArrow=none;html=1;rounded=0;entryX=0.5;entryY=1;entryDx=0;entryDy=0;entryPerimeter=0;exitX=0.5;exitY=0;exitDx=0;exitDy=0;exitPerimeter=0;" edge="1" parent="LHZKAzgyvmtLjbCMyj0f-1" source="LHZKAzgyvmtLjbCMyj0f-22" target="LHZKAzgyvmtLjbCMyj0f-9">
          <mxGeometry width="50" height="50" relative="1" as="geometry">
            <mxPoint x="610" y="650" as="sourcePoint" />
            <mxPoint x="660" y="600" as="targetPoint" />
          </mxGeometry>
        </mxCell>
        <mxCell id="LHZKAzgyvmtLjbCMyj0f-24" value="" style="endArrow=none;html=1;rounded=0;entryX=0.5;entryY=1;entryDx=0;entryDy=0;entryPerimeter=0;exitX=0.5;exitY=0;exitDx=0;exitDy=0;exitPerimeter=0;" edge="1" parent="LHZKAzgyvmtLjbCMyj0f-1" source="LHZKAzgyvmtLjbCMyj0f-21" target="LHZKAzgyvmtLjbCMyj0f-14">
          <mxGeometry width="50" height="50" relative="1" as="geometry">
            <mxPoint x="245" y="770" as="sourcePoint" />
            <mxPoint x="245" y="570" as="targetPoint" />
          </mxGeometry>
        </mxCell>
        <mxCell id="LHZKAzgyvmtLjbCMyj0f-27" value="&lt;font style=&quot;font-size: 16px;&quot;&gt;R3(RR)&lt;/font&gt;" style="text;html=1;align=center;verticalAlign=middle;resizable=0;points=[];autosize=1;strokeColor=none;fillColor=none;" vertex="1" parent="LHZKAzgyvmtLjbCMyj0f-1">
          <mxGeometry x="245" y="260" width="80" height="30" as="geometry" />
        </mxCell>
        <mxCell id="LHZKAzgyvmtLjbCMyj0f-28" value="&lt;font style=&quot;font-size: 16px;&quot;&gt;R2&lt;/font&gt;" style="text;html=1;align=center;verticalAlign=middle;resizable=0;points=[];autosize=1;strokeColor=none;fillColor=none;" vertex="1" parent="LHZKAzgyvmtLjbCMyj0f-1">
          <mxGeometry x="75" y="520" width="40" height="30" as="geometry" />
        </mxCell>
        <mxCell id="LHZKAzgyvmtLjbCMyj0f-29" value="&lt;font style=&quot;font-size: 16px;&quot;&gt;R1&lt;/font&gt;" style="text;html=1;align=center;verticalAlign=middle;resizable=0;points=[];autosize=1;strokeColor=none;fillColor=none;" vertex="1" parent="LHZKAzgyvmtLjbCMyj0f-1">
          <mxGeometry x="75" y="770" width="40" height="30" as="geometry" />
        </mxCell>
        <mxCell id="LHZKAzgyvmtLjbCMyj0f-30" value="&lt;font style=&quot;font-size: 16px;&quot;&gt;R4&lt;/font&gt;" style="text;html=1;align=center;verticalAlign=middle;resizable=0;points=[];autosize=1;strokeColor=none;fillColor=none;" vertex="1" parent="LHZKAzgyvmtLjbCMyj0f-1">
          <mxGeometry x="405" y="570" width="40" height="30" as="geometry" />
        </mxCell>
        <mxCell id="LHZKAzgyvmtLjbCMyj0f-31" value="&lt;font style=&quot;font-size: 16px;&quot;&gt;R5&lt;/font&gt;" style="text;html=1;align=center;verticalAlign=middle;resizable=0;points=[];autosize=1;strokeColor=none;fillColor=none;" vertex="1" parent="LHZKAzgyvmtLjbCMyj0f-1">
          <mxGeometry x="725" y="570" width="40" height="30" as="geometry" />
        </mxCell>
        <mxCell id="LHZKAzgyvmtLjbCMyj0f-32" value="&lt;span style=&quot;font-size: 16px;&quot;&gt;R6(RR)&lt;/span&gt;" style="text;html=1;align=center;verticalAlign=middle;resizable=0;points=[];autosize=1;strokeColor=none;fillColor=none;" vertex="1" parent="LHZKAzgyvmtLjbCMyj0f-1">
          <mxGeometry x="845" y="260" width="80" height="30" as="geometry" />
        </mxCell>
        <mxCell id="LHZKAzgyvmtLjbCMyj0f-33" value="&lt;font style=&quot;font-size: 16px;&quot;&gt;R7&lt;/font&gt;" style="text;html=1;align=center;verticalAlign=middle;resizable=0;points=[];autosize=1;strokeColor=none;fillColor=none;" vertex="1" parent="LHZKAzgyvmtLjbCMyj0f-1">
          <mxGeometry x="1065" y="520" width="40" height="30" as="geometry" />
        </mxCell>
        <mxCell id="LHZKAzgyvmtLjbCMyj0f-34" value="&lt;font style=&quot;font-size: 16px;&quot;&gt;R8&lt;/font&gt;" style="text;html=1;align=center;verticalAlign=middle;resizable=0;points=[];autosize=1;strokeColor=none;fillColor=none;" vertex="1" parent="LHZKAzgyvmtLjbCMyj0f-1">
          <mxGeometry x="1065" y="770" width="40" height="30" as="geometry" />
        </mxCell>
        <mxCell id="LHZKAzgyvmtLjbCMyj0f-37" value="G0/0" style="text;html=1;align=center;verticalAlign=middle;resizable=0;points=[];autosize=1;strokeColor=none;fillColor=none;" vertex="1" parent="LHZKAzgyvmtLjbCMyj0f-1">
          <mxGeometry x="905" y="290" width="50" height="30" as="geometry" />
        </mxCell>
        <mxCell id="LHZKAzgyvmtLjbCMyj0f-39" value="G0/0" style="text;html=1;align=center;verticalAlign=middle;resizable=0;points=[];autosize=1;strokeColor=none;fillColor=none;" vertex="1" parent="LHZKAzgyvmtLjbCMyj0f-1">
          <mxGeometry x="450" y="500" width="50" height="30" as="geometry" />
        </mxCell>
        <mxCell id="LHZKAzgyvmtLjbCMyj0f-40" value="G0/0" style="text;html=1;align=center;verticalAlign=middle;resizable=0;points=[];autosize=1;strokeColor=none;fillColor=none;" vertex="1" parent="LHZKAzgyvmtLjbCMyj0f-1">
          <mxGeometry x="670" y="500" width="50" height="30" as="geometry" />
        </mxCell>
        <mxCell id="LHZKAzgyvmtLjbCMyj0f-41" value="G0/0" style="text;html=1;align=center;verticalAlign=middle;resizable=0;points=[];autosize=1;strokeColor=none;fillColor=none;" vertex="1" parent="LHZKAzgyvmtLjbCMyj0f-1">
          <mxGeometry x="90" y="560" width="50" height="30" as="geometry" />
        </mxCell>
        <mxCell id="LHZKAzgyvmtLjbCMyj0f-42" value="G0/0" style="text;html=1;align=center;verticalAlign=middle;resizable=0;points=[];autosize=1;strokeColor=none;fillColor=none;" vertex="1" parent="LHZKAzgyvmtLjbCMyj0f-1">
          <mxGeometry x="90" y="730" width="50" height="30" as="geometry" />
        </mxCell>
        <mxCell id="LHZKAzgyvmtLjbCMyj0f-43" value="G0/0" style="text;html=1;align=center;verticalAlign=middle;resizable=0;points=[];autosize=1;strokeColor=none;fillColor=none;" vertex="1" parent="LHZKAzgyvmtLjbCMyj0f-1">
          <mxGeometry x="1030" y="560" width="50" height="30" as="geometry" />
        </mxCell>
        <mxCell id="LHZKAzgyvmtLjbCMyj0f-44" value="G0/0" style="text;html=1;align=center;verticalAlign=middle;resizable=0;points=[];autosize=1;strokeColor=none;fillColor=none;" vertex="1" parent="LHZKAzgyvmtLjbCMyj0f-1">
          <mxGeometry x="1030" y="730" width="50" height="30" as="geometry" />
        </mxCell>
        <mxCell id="LHZKAzgyvmtLjbCMyj0f-45" value="G0/1" style="text;html=1;align=center;verticalAlign=middle;resizable=0;points=[];autosize=1;strokeColor=none;fillColor=none;" vertex="1" parent="LHZKAzgyvmtLjbCMyj0f-1">
          <mxGeometry x="110" y="480" width="50" height="30" as="geometry" />
        </mxCell>
        <mxCell id="LHZKAzgyvmtLjbCMyj0f-46" value="G0/1" style="text;html=1;align=center;verticalAlign=middle;resizable=0;points=[];autosize=1;strokeColor=none;fillColor=none;" vertex="1" parent="LHZKAzgyvmtLjbCMyj0f-1">
          <mxGeometry x="230" y="340" width="50" height="30" as="geometry" />
        </mxCell>
        <mxCell id="LHZKAzgyvmtLjbCMyj0f-47" value="G0/2" style="text;html=1;align=center;verticalAlign=middle;resizable=0;points=[];autosize=1;strokeColor=none;fillColor=none;" vertex="1" parent="LHZKAzgyvmtLjbCMyj0f-1">
          <mxGeometry x="300" y="340" width="50" height="30" as="geometry" />
        </mxCell>
        <mxCell id="LHZKAzgyvmtLjbCMyj0f-48" value="G0/2" style="text;html=1;align=center;verticalAlign=middle;resizable=0;points=[];autosize=1;strokeColor=none;fillColor=none;" vertex="1" parent="LHZKAzgyvmtLjbCMyj0f-1">
          <mxGeometry x="405" y="470" width="50" height="30" as="geometry" />
        </mxCell>
        <mxCell id="LHZKAzgyvmtLjbCMyj0f-49" value="G0/1" style="text;html=1;align=center;verticalAlign=middle;resizable=0;points=[];autosize=1;strokeColor=none;fillColor=none;" vertex="1" parent="LHZKAzgyvmtLjbCMyj0f-1">
          <mxGeometry x="900" y="340" width="50" height="30" as="geometry" />
        </mxCell>
        <mxCell id="LHZKAzgyvmtLjbCMyj0f-50" value="G0/1" style="text;html=1;align=center;verticalAlign=middle;resizable=0;points=[];autosize=1;strokeColor=none;fillColor=none;" vertex="1" parent="LHZKAzgyvmtLjbCMyj0f-1">
          <mxGeometry x="1015" y="480" width="50" height="30" as="geometry" />
        </mxCell>
        <mxCell id="LHZKAzgyvmtLjbCMyj0f-51" value="G0/2" style="text;html=1;align=center;verticalAlign=middle;resizable=0;points=[];autosize=1;strokeColor=none;fillColor=none;" vertex="1" parent="LHZKAzgyvmtLjbCMyj0f-1">
          <mxGeometry x="710" y="470" width="50" height="30" as="geometry" />
        </mxCell>
        <mxCell id="LHZKAzgyvmtLjbCMyj0f-52" value="G0/2" style="text;html=1;align=center;verticalAlign=middle;resizable=0;points=[];autosize=1;strokeColor=none;fillColor=none;" vertex="1" parent="LHZKAzgyvmtLjbCMyj0f-1">
          <mxGeometry x="815" y="340" width="50" height="30" as="geometry" />
        </mxCell>
        <mxCell id="LHZKAzgyvmtLjbCMyj0f-53" value="12.1.1.0/24" style="text;html=1;align=center;verticalAlign=middle;resizable=0;points=[];autosize=1;strokeColor=none;fillColor=none;" vertex="1" parent="LHZKAzgyvmtLjbCMyj0f-1">
          <mxGeometry x="60" y="640" width="80" height="30" as="geometry" />
        </mxCell>
        <mxCell id="LHZKAzgyvmtLjbCMyj0f-54" value="23.1.1.0/24" style="text;html=1;align=center;verticalAlign=middle;resizable=0;points=[];autosize=1;strokeColor=none;fillColor=none;" vertex="1" parent="LHZKAzgyvmtLjbCMyj0f-1">
          <mxGeometry x="140" y="410" width="80" height="30" as="geometry" />
        </mxCell>
        <mxCell id="LHZKAzgyvmtLjbCMyj0f-55" value="34.1.1.0/24" style="text;html=1;align=center;verticalAlign=middle;resizable=0;points=[];autosize=1;strokeColor=none;fillColor=none;" vertex="1" parent="LHZKAzgyvmtLjbCMyj0f-1">
          <mxGeometry x="350" y="410" width="80" height="30" as="geometry" />
        </mxCell>
        <mxCell id="LHZKAzgyvmtLjbCMyj0f-56" value="56.1.1.0/24" style="text;html=1;align=center;verticalAlign=middle;resizable=0;points=[];autosize=1;strokeColor=none;fillColor=none;" vertex="1" parent="LHZKAzgyvmtLjbCMyj0f-1">
          <mxGeometry x="735" y="410" width="80" height="30" as="geometry" />
        </mxCell>
        <mxCell id="LHZKAzgyvmtLjbCMyj0f-57" value="67.1.1.0/24" style="text;html=1;align=center;verticalAlign=middle;resizable=0;points=[];autosize=1;strokeColor=none;fillColor=none;" vertex="1" parent="LHZKAzgyvmtLjbCMyj0f-1">
          <mxGeometry x="955" y="410" width="80" height="30" as="geometry" />
        </mxCell>
        <mxCell id="LHZKAzgyvmtLjbCMyj0f-59" value="45.1.1.0/24" style="text;html=1;align=center;verticalAlign=middle;resizable=0;points=[];autosize=1;strokeColor=none;fillColor=none;" vertex="1" parent="LHZKAzgyvmtLjbCMyj0f-1">
          <mxGeometry x="500" y="500" width="80" height="30" as="geometry" />
        </mxCell>
        <mxCell id="LHZKAzgyvmtLjbCMyj0f-61" value="87.1.1.0/24" style="text;html=1;align=center;verticalAlign=middle;resizable=0;points=[];autosize=1;strokeColor=none;fillColor=none;" vertex="1" parent="LHZKAzgyvmtLjbCMyj0f-1">
          <mxGeometry x="1030" y="640" width="80" height="30" as="geometry" />
        </mxCell>
        <mxCell id="LHZKAzgyvmtLjbCMyj0f-62" value="&lt;font style=&quot;font-size: 20px;&quot;&gt;AS 65001&lt;/font&gt;" style="text;html=1;align=center;verticalAlign=middle;resizable=0;points=[];autosize=1;strokeColor=none;fillColor=none;" vertex="1" parent="LHZKAzgyvmtLjbCMyj0f-1">
          <mxGeometry x="20" y="370" width="110" height="40" as="geometry" />
        </mxCell>
        <mxCell id="LHZKAzgyvmtLjbCMyj0f-64" value="&lt;font style=&quot;font-size: 20px;&quot;&gt;AS 100&lt;/font&gt;" style="text;html=1;align=center;verticalAlign=middle;resizable=0;points=[];autosize=1;strokeColor=none;fillColor=none;" vertex="1" parent="LHZKAzgyvmtLjbCMyj0f-1">
          <mxGeometry x="90" y="820" width="90" height="40" as="geometry" />
        </mxCell>
        <mxCell id="LHZKAzgyvmtLjbCMyj0f-65" value="&lt;font style=&quot;font-size: 20px;&quot;&gt;AS 200&lt;/font&gt;" style="text;html=1;align=center;verticalAlign=middle;resizable=0;points=[];autosize=1;strokeColor=none;fillColor=none;" vertex="1" parent="LHZKAzgyvmtLjbCMyj0f-1">
          <mxGeometry x="980" y="820" width="90" height="40" as="geometry" />
        </mxCell>
        <mxCell id="E-mP4BxWHDf9Ua8nIWyu-0" value="&lt;font style=&quot;font-size: 20px;&quot;&gt;AS 65002&lt;/font&gt;" style="text;html=1;align=center;verticalAlign=middle;resizable=0;points=[];autosize=1;strokeColor=none;fillColor=none;" vertex="1" parent="LHZKAzgyvmtLjbCMyj0f-1">
          <mxGeometry x="1010" y="370" width="110" height="40" as="geometry" />
        </mxCell>
      </root>
    </mxGraphModel>
  </diagram>
  <diagram name="MPLS VPN OptionB" id="FBcfWaoqLFw7pnBleW68">
    <mxGraphModel dx="2284" dy="836" grid="1" gridSize="10" guides="1" tooltips="1" connect="1" arrows="1" fold="1" page="1" pageScale="1" pageWidth="850" pageHeight="1100" math="0" shadow="0">
      <root>
        <mxCell id="jmFpsDiJR2ltqdFo4BbX-0" />
        <mxCell id="jmFpsDiJR2ltqdFo4BbX-1" parent="jmFpsDiJR2ltqdFo4BbX-0" />
        <mxCell id="jmFpsDiJR2ltqdFo4BbX-2" value="" style="ellipse;shape=cloud;whiteSpace=wrap;html=1;fillColor=#f8cecc;gradientColor=#ea6b66;strokeColor=#b85450;" vertex="1" parent="jmFpsDiJR2ltqdFo4BbX-1">
          <mxGeometry x="787.5" y="685" width="295" height="200" as="geometry" />
        </mxCell>
        <mxCell id="jmFpsDiJR2ltqdFo4BbX-3" value="" style="ellipse;shape=cloud;whiteSpace=wrap;html=1;fillColor=#d5e8d4;gradientColor=#97d077;strokeColor=#82b366;" vertex="1" parent="jmFpsDiJR2ltqdFo4BbX-1">
          <mxGeometry x="-10" y="685" width="295" height="200" as="geometry" />
        </mxCell>
        <mxCell id="jmFpsDiJR2ltqdFo4BbX-4" value="" style="ellipse;shape=cloud;whiteSpace=wrap;html=1;fillColor=#dae8fc;gradientColor=#7ea6e0;strokeColor=#6c8ebf;" vertex="1" parent="jmFpsDiJR2ltqdFo4BbX-1">
          <mxGeometry x="530" y="205" width="660" height="440" as="geometry" />
        </mxCell>
        <mxCell id="jmFpsDiJR2ltqdFo4BbX-5" value="" style="ellipse;shape=cloud;whiteSpace=wrap;html=1;fillColor=#fff2cc;gradientColor=#ffd966;strokeColor=#d6b656;" vertex="1" parent="jmFpsDiJR2ltqdFo4BbX-1">
          <mxGeometry x="-140" y="205" width="660" height="440" as="geometry" />
        </mxCell>
        <mxCell id="jmFpsDiJR2ltqdFo4BbX-6" value="" style="sketch=0;points=[[0.5,0,0],[1,0.5,0],[0.5,1,0],[0,0.5,0],[0.145,0.145,0],[0.8555,0.145,0],[0.855,0.8555,0],[0.145,0.855,0]];verticalLabelPosition=bottom;html=1;verticalAlign=top;aspect=fixed;align=center;pointerEvents=1;shape=mxgraph.cisco19.rect;prIcon=router;fillColor=#FAFAFA;strokeColor=#005073;" vertex="1" parent="jmFpsDiJR2ltqdFo4BbX-1">
          <mxGeometry x="1050" y="300" width="50" height="50" as="geometry" />
        </mxCell>
        <mxCell id="jmFpsDiJR2ltqdFo4BbX-7" value="" style="sketch=0;points=[[0.5,0,0],[1,0.5,0],[0.5,1,0],[0,0.5,0],[0.145,0.145,0],[0.8555,0.145,0],[0.855,0.8555,0],[0.145,0.855,0]];verticalLabelPosition=bottom;html=1;verticalAlign=top;aspect=fixed;align=center;pointerEvents=1;shape=mxgraph.cisco19.rect;prIcon=router;fillColor=#FAFAFA;strokeColor=#005073;" vertex="1" parent="jmFpsDiJR2ltqdFo4BbX-1">
          <mxGeometry x="400" y="510" width="50" height="50" as="geometry" />
        </mxCell>
        <mxCell id="jmFpsDiJR2ltqdFo4BbX-8" value="" style="sketch=0;points=[[0.5,0,0],[1,0.5,0],[0.5,1,0],[0,0.5,0],[0.145,0.145,0],[0.8555,0.145,0],[0.855,0.8555,0],[0.145,0.855,0]];verticalLabelPosition=bottom;html=1;verticalAlign=top;aspect=fixed;align=center;pointerEvents=1;shape=mxgraph.cisco19.rect;prIcon=router;fillColor=#FAFAFA;strokeColor=#005073;" vertex="1" parent="jmFpsDiJR2ltqdFo4BbX-1">
          <mxGeometry x="260" y="300" width="50" height="50" as="geometry" />
        </mxCell>
        <mxCell id="jmFpsDiJR2ltqdFo4BbX-9" value="" style="sketch=0;points=[[0.5,0,0],[1,0.5,0],[0.5,1,0],[0,0.5,0],[0.145,0.145,0],[0.8555,0.145,0],[0.855,0.8555,0],[0.145,0.855,0]];verticalLabelPosition=bottom;html=1;verticalAlign=top;aspect=fixed;align=center;pointerEvents=1;shape=mxgraph.cisco19.rect;prIcon=router;fillColor=#FAFAFA;strokeColor=#005073;" vertex="1" parent="jmFpsDiJR2ltqdFo4BbX-1">
          <mxGeometry x="120" y="510" width="50" height="50" as="geometry" />
        </mxCell>
        <mxCell id="jmFpsDiJR2ltqdFo4BbX-10" value="" style="sketch=0;points=[[0.5,0,0],[1,0.5,0],[0.5,1,0],[0,0.5,0],[0.145,0.145,0],[0.8555,0.145,0],[0.855,0.8555,0],[0.145,0.855,0]];verticalLabelPosition=bottom;html=1;verticalAlign=top;aspect=fixed;align=center;pointerEvents=1;shape=mxgraph.cisco19.rect;prIcon=router;fillColor=#FAFAFA;strokeColor=#005073;" vertex="1" parent="jmFpsDiJR2ltqdFo4BbX-1">
          <mxGeometry x="-10" y="300" width="50" height="50" as="geometry" />
        </mxCell>
        <mxCell id="jmFpsDiJR2ltqdFo4BbX-11" value="" style="endArrow=none;html=1;rounded=0;entryX=0.5;entryY=1;entryDx=0;entryDy=0;entryPerimeter=0;exitX=0.5;exitY=0;exitDx=0;exitDy=0;exitPerimeter=0;" edge="1" parent="jmFpsDiJR2ltqdFo4BbX-1" source="jmFpsDiJR2ltqdFo4BbX-9" target="jmFpsDiJR2ltqdFo4BbX-8">
          <mxGeometry width="50" height="50" relative="1" as="geometry">
            <mxPoint x="610" y="450" as="sourcePoint" />
            <mxPoint x="660" y="400" as="targetPoint" />
          </mxGeometry>
        </mxCell>
        <mxCell id="jmFpsDiJR2ltqdFo4BbX-12" value="" style="endArrow=none;html=1;rounded=0;entryX=0.5;entryY=1;entryDx=0;entryDy=0;entryPerimeter=0;exitX=0.5;exitY=0;exitDx=0;exitDy=0;exitPerimeter=0;" edge="1" parent="jmFpsDiJR2ltqdFo4BbX-1" source="jmFpsDiJR2ltqdFo4BbX-7" target="jmFpsDiJR2ltqdFo4BbX-8">
          <mxGeometry width="50" height="50" relative="1" as="geometry">
            <mxPoint x="610" y="450" as="sourcePoint" />
            <mxPoint x="660" y="400" as="targetPoint" />
          </mxGeometry>
        </mxCell>
        <mxCell id="jmFpsDiJR2ltqdFo4BbX-13" value="" style="endArrow=none;html=1;rounded=0;entryX=0;entryY=0.5;entryDx=0;entryDy=0;entryPerimeter=0;exitX=1;exitY=0.5;exitDx=0;exitDy=0;exitPerimeter=0;" edge="1" parent="jmFpsDiJR2ltqdFo4BbX-1" source="jmFpsDiJR2ltqdFo4BbX-7" target="jmFpsDiJR2ltqdFo4BbX-16">
          <mxGeometry width="50" height="50" relative="1" as="geometry">
            <mxPoint x="435" y="520" as="sourcePoint" />
            <mxPoint x="630" y="535" as="targetPoint" />
          </mxGeometry>
        </mxCell>
        <mxCell id="jmFpsDiJR2ltqdFo4BbX-14" value="" style="sketch=0;points=[[0.5,0,0],[1,0.5,0],[0.5,1,0],[0,0.5,0],[0.145,0.145,0],[0.8555,0.145,0],[0.855,0.8555,0],[0.145,0.855,0]];verticalLabelPosition=bottom;html=1;verticalAlign=top;aspect=fixed;align=center;pointerEvents=1;shape=mxgraph.cisco19.rect;prIcon=router;fillColor=#FAFAFA;strokeColor=#005073;" vertex="1" parent="jmFpsDiJR2ltqdFo4BbX-1">
          <mxGeometry x="910" y="510" width="50" height="50" as="geometry" />
        </mxCell>
        <mxCell id="jmFpsDiJR2ltqdFo4BbX-15" value="" style="sketch=0;points=[[0.5,0,0],[1,0.5,0],[0.5,1,0],[0,0.5,0],[0.145,0.145,0],[0.8555,0.145,0],[0.855,0.8555,0],[0.145,0.855,0]];verticalLabelPosition=bottom;html=1;verticalAlign=top;aspect=fixed;align=center;pointerEvents=1;shape=mxgraph.cisco19.rect;prIcon=router;fillColor=#FAFAFA;strokeColor=#005073;" vertex="1" parent="jmFpsDiJR2ltqdFo4BbX-1">
          <mxGeometry x="770" y="300" width="50" height="50" as="geometry" />
        </mxCell>
        <mxCell id="jmFpsDiJR2ltqdFo4BbX-16" value="" style="sketch=0;points=[[0.5,0,0],[1,0.5,0],[0.5,1,0],[0,0.5,0],[0.145,0.145,0],[0.8555,0.145,0],[0.855,0.8555,0],[0.145,0.855,0]];verticalLabelPosition=bottom;html=1;verticalAlign=top;aspect=fixed;align=center;pointerEvents=1;shape=mxgraph.cisco19.rect;prIcon=router;fillColor=#FAFAFA;strokeColor=#005073;" vertex="1" parent="jmFpsDiJR2ltqdFo4BbX-1">
          <mxGeometry x="630" y="510" width="50" height="50" as="geometry" />
        </mxCell>
        <mxCell id="jmFpsDiJR2ltqdFo4BbX-17" value="" style="endArrow=none;html=1;rounded=0;entryX=0.5;entryY=1;entryDx=0;entryDy=0;entryPerimeter=0;exitX=0.5;exitY=0;exitDx=0;exitDy=0;exitPerimeter=0;" edge="1" parent="jmFpsDiJR2ltqdFo4BbX-1" source="jmFpsDiJR2ltqdFo4BbX-16" target="jmFpsDiJR2ltqdFo4BbX-15">
          <mxGeometry width="50" height="50" relative="1" as="geometry">
            <mxPoint x="1120" y="450" as="sourcePoint" />
            <mxPoint x="1170" y="400" as="targetPoint" />
          </mxGeometry>
        </mxCell>
        <mxCell id="jmFpsDiJR2ltqdFo4BbX-18" value="" style="endArrow=none;html=1;rounded=0;entryX=0.5;entryY=1;entryDx=0;entryDy=0;entryPerimeter=0;exitX=0.5;exitY=0;exitDx=0;exitDy=0;exitPerimeter=0;" edge="1" parent="jmFpsDiJR2ltqdFo4BbX-1" source="jmFpsDiJR2ltqdFo4BbX-14" target="jmFpsDiJR2ltqdFo4BbX-15">
          <mxGeometry width="50" height="50" relative="1" as="geometry">
            <mxPoint x="1120" y="450" as="sourcePoint" />
            <mxPoint x="1170" y="400" as="targetPoint" />
          </mxGeometry>
        </mxCell>
        <mxCell id="jmFpsDiJR2ltqdFo4BbX-19" value="" style="endArrow=none;html=1;rounded=0;entryX=1;entryY=0.5;entryDx=0;entryDy=0;entryPerimeter=0;exitX=0;exitY=0.5;exitDx=0;exitDy=0;exitPerimeter=0;" edge="1" parent="jmFpsDiJR2ltqdFo4BbX-1" source="jmFpsDiJR2ltqdFo4BbX-8" target="jmFpsDiJR2ltqdFo4BbX-10">
          <mxGeometry width="50" height="50" relative="1" as="geometry">
            <mxPoint x="610" y="450" as="sourcePoint" />
            <mxPoint x="660" y="400" as="targetPoint" />
          </mxGeometry>
        </mxCell>
        <mxCell id="jmFpsDiJR2ltqdFo4BbX-20" value="" style="endArrow=none;html=1;rounded=0;entryX=1;entryY=0.5;entryDx=0;entryDy=0;entryPerimeter=0;exitX=0;exitY=0.5;exitDx=0;exitDy=0;exitPerimeter=0;" edge="1" parent="jmFpsDiJR2ltqdFo4BbX-1" source="jmFpsDiJR2ltqdFo4BbX-6" target="jmFpsDiJR2ltqdFo4BbX-15">
          <mxGeometry width="50" height="50" relative="1" as="geometry">
            <mxPoint x="270" y="335" as="sourcePoint" />
            <mxPoint x="50" y="335" as="targetPoint" />
          </mxGeometry>
        </mxCell>
        <mxCell id="jmFpsDiJR2ltqdFo4BbX-21" value="" style="sketch=0;points=[[0.5,0,0],[1,0.5,0],[0.5,1,0],[0,0.5,0],[0.145,0.145,0],[0.8555,0.145,0],[0.855,0.8555,0],[0.145,0.855,0]];verticalLabelPosition=bottom;html=1;verticalAlign=top;aspect=fixed;align=center;pointerEvents=1;shape=mxgraph.cisco19.rect;prIcon=router;fillColor=#FAFAFA;strokeColor=#005073;" vertex="1" parent="jmFpsDiJR2ltqdFo4BbX-1">
          <mxGeometry x="910" y="760" width="50" height="50" as="geometry" />
        </mxCell>
        <mxCell id="jmFpsDiJR2ltqdFo4BbX-22" value="" style="sketch=0;points=[[0.5,0,0],[1,0.5,0],[0.5,1,0],[0,0.5,0],[0.145,0.145,0],[0.8555,0.145,0],[0.855,0.8555,0],[0.145,0.855,0]];verticalLabelPosition=bottom;html=1;verticalAlign=top;aspect=fixed;align=center;pointerEvents=1;shape=mxgraph.cisco19.rect;prIcon=router;fillColor=#FAFAFA;strokeColor=#005073;" vertex="1" parent="jmFpsDiJR2ltqdFo4BbX-1">
          <mxGeometry x="120" y="760" width="50" height="50" as="geometry" />
        </mxCell>
        <mxCell id="jmFpsDiJR2ltqdFo4BbX-23" value="" style="endArrow=none;html=1;rounded=0;entryX=0.5;entryY=1;entryDx=0;entryDy=0;entryPerimeter=0;exitX=0.5;exitY=0;exitDx=0;exitDy=0;exitPerimeter=0;" edge="1" parent="jmFpsDiJR2ltqdFo4BbX-1" source="jmFpsDiJR2ltqdFo4BbX-22" target="jmFpsDiJR2ltqdFo4BbX-9">
          <mxGeometry width="50" height="50" relative="1" as="geometry">
            <mxPoint x="610" y="650" as="sourcePoint" />
            <mxPoint x="660" y="600" as="targetPoint" />
          </mxGeometry>
        </mxCell>
        <mxCell id="jmFpsDiJR2ltqdFo4BbX-24" value="" style="endArrow=none;html=1;rounded=0;entryX=0.5;entryY=1;entryDx=0;entryDy=0;entryPerimeter=0;exitX=0.5;exitY=0;exitDx=0;exitDy=0;exitPerimeter=0;" edge="1" parent="jmFpsDiJR2ltqdFo4BbX-1" source="jmFpsDiJR2ltqdFo4BbX-21" target="jmFpsDiJR2ltqdFo4BbX-14">
          <mxGeometry width="50" height="50" relative="1" as="geometry">
            <mxPoint x="155" y="770" as="sourcePoint" />
            <mxPoint x="155" y="570" as="targetPoint" />
          </mxGeometry>
        </mxCell>
        <mxCell id="jmFpsDiJR2ltqdFo4BbX-25" value="&lt;font style=&quot;font-size: 16px;&quot;&gt;RR1&lt;/font&gt;" style="text;html=1;align=center;verticalAlign=middle;resizable=0;points=[];autosize=1;strokeColor=none;fillColor=none;" vertex="1" parent="jmFpsDiJR2ltqdFo4BbX-1">
          <mxGeometry x="-15" y="350" width="60" height="30" as="geometry" />
        </mxCell>
        <mxCell id="jmFpsDiJR2ltqdFo4BbX-26" value="&lt;font style=&quot;font-size: 16px;&quot;&gt;RR2&lt;/font&gt;" style="text;html=1;align=center;verticalAlign=middle;resizable=0;points=[];autosize=1;strokeColor=none;fillColor=none;" vertex="1" parent="jmFpsDiJR2ltqdFo4BbX-1">
          <mxGeometry x="1045" y="350" width="60" height="30" as="geometry" />
        </mxCell>
        <mxCell id="jmFpsDiJR2ltqdFo4BbX-27" value="&lt;font style=&quot;font-size: 16px;&quot;&gt;R3&lt;/font&gt;" style="text;html=1;align=center;verticalAlign=middle;resizable=0;points=[];autosize=1;strokeColor=none;fillColor=none;" vertex="1" parent="jmFpsDiJR2ltqdFo4BbX-1">
          <mxGeometry x="265" y="260" width="40" height="30" as="geometry" />
        </mxCell>
        <mxCell id="jmFpsDiJR2ltqdFo4BbX-28" value="&lt;font style=&quot;font-size: 16px;&quot;&gt;R2&lt;/font&gt;" style="text;html=1;align=center;verticalAlign=middle;resizable=0;points=[];autosize=1;strokeColor=none;fillColor=none;" vertex="1" parent="jmFpsDiJR2ltqdFo4BbX-1">
          <mxGeometry x="75" y="520" width="40" height="30" as="geometry" />
        </mxCell>
        <mxCell id="jmFpsDiJR2ltqdFo4BbX-29" value="&lt;font style=&quot;font-size: 16px;&quot;&gt;R1&lt;/font&gt;" style="text;html=1;align=center;verticalAlign=middle;resizable=0;points=[];autosize=1;strokeColor=none;fillColor=none;" vertex="1" parent="jmFpsDiJR2ltqdFo4BbX-1">
          <mxGeometry x="75" y="770" width="40" height="30" as="geometry" />
        </mxCell>
        <mxCell id="jmFpsDiJR2ltqdFo4BbX-30" value="&lt;font style=&quot;font-size: 16px;&quot;&gt;R4&lt;/font&gt;" style="text;html=1;align=center;verticalAlign=middle;resizable=0;points=[];autosize=1;strokeColor=none;fillColor=none;" vertex="1" parent="jmFpsDiJR2ltqdFo4BbX-1">
          <mxGeometry x="405" y="570" width="40" height="30" as="geometry" />
        </mxCell>
        <mxCell id="jmFpsDiJR2ltqdFo4BbX-31" value="&lt;font style=&quot;font-size: 16px;&quot;&gt;R5&lt;/font&gt;" style="text;html=1;align=center;verticalAlign=middle;resizable=0;points=[];autosize=1;strokeColor=none;fillColor=none;" vertex="1" parent="jmFpsDiJR2ltqdFo4BbX-1">
          <mxGeometry x="635" y="570" width="40" height="30" as="geometry" />
        </mxCell>
        <mxCell id="jmFpsDiJR2ltqdFo4BbX-32" value="&lt;font style=&quot;font-size: 16px;&quot;&gt;R6&lt;/font&gt;" style="text;html=1;align=center;verticalAlign=middle;resizable=0;points=[];autosize=1;strokeColor=none;fillColor=none;" vertex="1" parent="jmFpsDiJR2ltqdFo4BbX-1">
          <mxGeometry x="775" y="260" width="40" height="30" as="geometry" />
        </mxCell>
        <mxCell id="jmFpsDiJR2ltqdFo4BbX-33" value="&lt;font style=&quot;font-size: 16px;&quot;&gt;R7&lt;/font&gt;" style="text;html=1;align=center;verticalAlign=middle;resizable=0;points=[];autosize=1;strokeColor=none;fillColor=none;" vertex="1" parent="jmFpsDiJR2ltqdFo4BbX-1">
          <mxGeometry x="975" y="520" width="40" height="30" as="geometry" />
        </mxCell>
        <mxCell id="jmFpsDiJR2ltqdFo4BbX-34" value="&lt;font style=&quot;font-size: 16px;&quot;&gt;R8&lt;/font&gt;" style="text;html=1;align=center;verticalAlign=middle;resizable=0;points=[];autosize=1;strokeColor=none;fillColor=none;" vertex="1" parent="jmFpsDiJR2ltqdFo4BbX-1">
          <mxGeometry x="975" y="770" width="40" height="30" as="geometry" />
        </mxCell>
        <mxCell id="jmFpsDiJR2ltqdFo4BbX-35" value="G0/0" style="text;html=1;align=center;verticalAlign=middle;resizable=0;points=[];autosize=1;strokeColor=none;fillColor=none;" vertex="1" parent="jmFpsDiJR2ltqdFo4BbX-1">
          <mxGeometry x="210" y="290" width="50" height="30" as="geometry" />
        </mxCell>
        <mxCell id="jmFpsDiJR2ltqdFo4BbX-36" value="G0/0" style="text;html=1;align=center;verticalAlign=middle;resizable=0;points=[];autosize=1;strokeColor=none;fillColor=none;" vertex="1" parent="jmFpsDiJR2ltqdFo4BbX-1">
          <mxGeometry x="30" y="290" width="50" height="30" as="geometry" />
        </mxCell>
        <mxCell id="jmFpsDiJR2ltqdFo4BbX-37" value="G0/0" style="text;html=1;align=center;verticalAlign=middle;resizable=0;points=[];autosize=1;strokeColor=none;fillColor=none;" vertex="1" parent="jmFpsDiJR2ltqdFo4BbX-1">
          <mxGeometry x="815" y="290" width="50" height="30" as="geometry" />
        </mxCell>
        <mxCell id="jmFpsDiJR2ltqdFo4BbX-38" value="G0/0" style="text;html=1;align=center;verticalAlign=middle;resizable=0;points=[];autosize=1;strokeColor=none;fillColor=none;" vertex="1" parent="jmFpsDiJR2ltqdFo4BbX-1">
          <mxGeometry x="1000" y="290" width="50" height="30" as="geometry" />
        </mxCell>
        <mxCell id="jmFpsDiJR2ltqdFo4BbX-39" value="G0/0" style="text;html=1;align=center;verticalAlign=middle;resizable=0;points=[];autosize=1;strokeColor=none;fillColor=none;" vertex="1" parent="jmFpsDiJR2ltqdFo4BbX-1">
          <mxGeometry x="450" y="500" width="50" height="30" as="geometry" />
        </mxCell>
        <mxCell id="jmFpsDiJR2ltqdFo4BbX-40" value="G0/0" style="text;html=1;align=center;verticalAlign=middle;resizable=0;points=[];autosize=1;strokeColor=none;fillColor=none;" vertex="1" parent="jmFpsDiJR2ltqdFo4BbX-1">
          <mxGeometry x="580" y="500" width="50" height="30" as="geometry" />
        </mxCell>
        <mxCell id="jmFpsDiJR2ltqdFo4BbX-41" value="G0/0" style="text;html=1;align=center;verticalAlign=middle;resizable=0;points=[];autosize=1;strokeColor=none;fillColor=none;" vertex="1" parent="jmFpsDiJR2ltqdFo4BbX-1">
          <mxGeometry x="90" y="560" width="50" height="30" as="geometry" />
        </mxCell>
        <mxCell id="jmFpsDiJR2ltqdFo4BbX-42" value="G0/0" style="text;html=1;align=center;verticalAlign=middle;resizable=0;points=[];autosize=1;strokeColor=none;fillColor=none;" vertex="1" parent="jmFpsDiJR2ltqdFo4BbX-1">
          <mxGeometry x="90" y="730" width="50" height="30" as="geometry" />
        </mxCell>
        <mxCell id="jmFpsDiJR2ltqdFo4BbX-43" value="G0/0" style="text;html=1;align=center;verticalAlign=middle;resizable=0;points=[];autosize=1;strokeColor=none;fillColor=none;" vertex="1" parent="jmFpsDiJR2ltqdFo4BbX-1">
          <mxGeometry x="940" y="560" width="50" height="30" as="geometry" />
        </mxCell>
        <mxCell id="jmFpsDiJR2ltqdFo4BbX-44" value="G0/0" style="text;html=1;align=center;verticalAlign=middle;resizable=0;points=[];autosize=1;strokeColor=none;fillColor=none;" vertex="1" parent="jmFpsDiJR2ltqdFo4BbX-1">
          <mxGeometry x="940" y="730" width="50" height="30" as="geometry" />
        </mxCell>
        <mxCell id="jmFpsDiJR2ltqdFo4BbX-45" value="G0/1" style="text;html=1;align=center;verticalAlign=middle;resizable=0;points=[];autosize=1;strokeColor=none;fillColor=none;" vertex="1" parent="jmFpsDiJR2ltqdFo4BbX-1">
          <mxGeometry x="110" y="480" width="50" height="30" as="geometry" />
        </mxCell>
        <mxCell id="jmFpsDiJR2ltqdFo4BbX-46" value="G0/1" style="text;html=1;align=center;verticalAlign=middle;resizable=0;points=[];autosize=1;strokeColor=none;fillColor=none;" vertex="1" parent="jmFpsDiJR2ltqdFo4BbX-1">
          <mxGeometry x="230" y="340" width="50" height="30" as="geometry" />
        </mxCell>
        <mxCell id="jmFpsDiJR2ltqdFo4BbX-47" value="G0/2" style="text;html=1;align=center;verticalAlign=middle;resizable=0;points=[];autosize=1;strokeColor=none;fillColor=none;" vertex="1" parent="jmFpsDiJR2ltqdFo4BbX-1">
          <mxGeometry x="300" y="340" width="50" height="30" as="geometry" />
        </mxCell>
        <mxCell id="jmFpsDiJR2ltqdFo4BbX-48" value="G0/2" style="text;html=1;align=center;verticalAlign=middle;resizable=0;points=[];autosize=1;strokeColor=none;fillColor=none;" vertex="1" parent="jmFpsDiJR2ltqdFo4BbX-1">
          <mxGeometry x="405" y="470" width="50" height="30" as="geometry" />
        </mxCell>
        <mxCell id="jmFpsDiJR2ltqdFo4BbX-49" value="G0/1" style="text;html=1;align=center;verticalAlign=middle;resizable=0;points=[];autosize=1;strokeColor=none;fillColor=none;" vertex="1" parent="jmFpsDiJR2ltqdFo4BbX-1">
          <mxGeometry x="810" y="340" width="50" height="30" as="geometry" />
        </mxCell>
        <mxCell id="jmFpsDiJR2ltqdFo4BbX-50" value="G0/1" style="text;html=1;align=center;verticalAlign=middle;resizable=0;points=[];autosize=1;strokeColor=none;fillColor=none;" vertex="1" parent="jmFpsDiJR2ltqdFo4BbX-1">
          <mxGeometry x="925" y="480" width="50" height="30" as="geometry" />
        </mxCell>
        <mxCell id="jmFpsDiJR2ltqdFo4BbX-51" value="G0/2" style="text;html=1;align=center;verticalAlign=middle;resizable=0;points=[];autosize=1;strokeColor=none;fillColor=none;" vertex="1" parent="jmFpsDiJR2ltqdFo4BbX-1">
          <mxGeometry x="620" y="470" width="50" height="30" as="geometry" />
        </mxCell>
        <mxCell id="jmFpsDiJR2ltqdFo4BbX-52" value="G0/2" style="text;html=1;align=center;verticalAlign=middle;resizable=0;points=[];autosize=1;strokeColor=none;fillColor=none;" vertex="1" parent="jmFpsDiJR2ltqdFo4BbX-1">
          <mxGeometry x="725" y="340" width="50" height="30" as="geometry" />
        </mxCell>
        <mxCell id="jmFpsDiJR2ltqdFo4BbX-53" value="12.1.1.0/24" style="text;html=1;align=center;verticalAlign=middle;resizable=0;points=[];autosize=1;strokeColor=none;fillColor=none;" vertex="1" parent="jmFpsDiJR2ltqdFo4BbX-1">
          <mxGeometry x="60" y="640" width="80" height="30" as="geometry" />
        </mxCell>
        <mxCell id="jmFpsDiJR2ltqdFo4BbX-54" value="23.1.1.0/24" style="text;html=1;align=center;verticalAlign=middle;resizable=0;points=[];autosize=1;strokeColor=none;fillColor=none;" vertex="1" parent="jmFpsDiJR2ltqdFo4BbX-1">
          <mxGeometry x="140" y="410" width="80" height="30" as="geometry" />
        </mxCell>
        <mxCell id="jmFpsDiJR2ltqdFo4BbX-55" value="34.1.1.0/24" style="text;html=1;align=center;verticalAlign=middle;resizable=0;points=[];autosize=1;strokeColor=none;fillColor=none;" vertex="1" parent="jmFpsDiJR2ltqdFo4BbX-1">
          <mxGeometry x="350" y="410" width="80" height="30" as="geometry" />
        </mxCell>
        <mxCell id="jmFpsDiJR2ltqdFo4BbX-56" value="56.1.1.0/24" style="text;html=1;align=center;verticalAlign=middle;resizable=0;points=[];autosize=1;strokeColor=none;fillColor=none;" vertex="1" parent="jmFpsDiJR2ltqdFo4BbX-1">
          <mxGeometry x="645" y="410" width="80" height="30" as="geometry" />
        </mxCell>
        <mxCell id="jmFpsDiJR2ltqdFo4BbX-57" value="67.1.1.0/24" style="text;html=1;align=center;verticalAlign=middle;resizable=0;points=[];autosize=1;strokeColor=none;fillColor=none;" vertex="1" parent="jmFpsDiJR2ltqdFo4BbX-1">
          <mxGeometry x="865" y="410" width="80" height="30" as="geometry" />
        </mxCell>
        <mxCell id="jmFpsDiJR2ltqdFo4BbX-58" value="13.1.1.0/24" style="text;html=1;align=center;verticalAlign=middle;resizable=0;points=[];autosize=1;strokeColor=none;fillColor=none;" vertex="1" parent="jmFpsDiJR2ltqdFo4BbX-1">
          <mxGeometry x="90" y="290" width="80" height="30" as="geometry" />
        </mxCell>
        <mxCell id="jmFpsDiJR2ltqdFo4BbX-59" value="45.1.1.0/24" style="text;html=1;align=center;verticalAlign=middle;resizable=0;points=[];autosize=1;strokeColor=none;fillColor=none;" vertex="1" parent="jmFpsDiJR2ltqdFo4BbX-1">
          <mxGeometry x="500" y="500" width="80" height="30" as="geometry" />
        </mxCell>
        <mxCell id="jmFpsDiJR2ltqdFo4BbX-60" value="26.1.1.0/24" style="text;html=1;align=center;verticalAlign=middle;resizable=0;points=[];autosize=1;strokeColor=none;fillColor=none;" vertex="1" parent="jmFpsDiJR2ltqdFo4BbX-1">
          <mxGeometry x="895" y="290" width="80" height="30" as="geometry" />
        </mxCell>
        <mxCell id="jmFpsDiJR2ltqdFo4BbX-61" value="87.1.1.0/24" style="text;html=1;align=center;verticalAlign=middle;resizable=0;points=[];autosize=1;strokeColor=none;fillColor=none;" vertex="1" parent="jmFpsDiJR2ltqdFo4BbX-1">
          <mxGeometry x="940" y="640" width="80" height="30" as="geometry" />
        </mxCell>
        <mxCell id="jmFpsDiJR2ltqdFo4BbX-62" value="&lt;font style=&quot;font-size: 20px;&quot;&gt;AS 65001&lt;/font&gt;" style="text;html=1;align=center;verticalAlign=middle;resizable=0;points=[];autosize=1;strokeColor=none;fillColor=none;" vertex="1" parent="jmFpsDiJR2ltqdFo4BbX-1">
          <mxGeometry x="-80" y="380" width="110" height="40" as="geometry" />
        </mxCell>
        <mxCell id="jmFpsDiJR2ltqdFo4BbX-63" value="&lt;font style=&quot;font-size: 20px;&quot;&gt;AS 65002&lt;/font&gt;" style="text;html=1;align=center;verticalAlign=middle;resizable=0;points=[];autosize=1;strokeColor=none;fillColor=none;" vertex="1" parent="jmFpsDiJR2ltqdFo4BbX-1">
          <mxGeometry x="1005" y="380" width="110" height="40" as="geometry" />
        </mxCell>
        <mxCell id="jmFpsDiJR2ltqdFo4BbX-64" value="&lt;font style=&quot;font-size: 20px;&quot;&gt;AS 100&lt;/font&gt;" style="text;html=1;align=center;verticalAlign=middle;resizable=0;points=[];autosize=1;strokeColor=none;fillColor=none;" vertex="1" parent="jmFpsDiJR2ltqdFo4BbX-1">
          <mxGeometry x="90" y="820" width="90" height="40" as="geometry" />
        </mxCell>
        <mxCell id="jmFpsDiJR2ltqdFo4BbX-65" value="&lt;font style=&quot;font-size: 20px;&quot;&gt;AS 200&lt;/font&gt;" style="text;html=1;align=center;verticalAlign=middle;resizable=0;points=[];autosize=1;strokeColor=none;fillColor=none;" vertex="1" parent="jmFpsDiJR2ltqdFo4BbX-1">
          <mxGeometry x="890" y="820" width="90" height="40" as="geometry" />
        </mxCell>
      </root>
    </mxGraphModel>
  </diagram>
</mxfile>
